<svg width="13" height="20" viewBox="0 0 13 20" xmlns="http://www.w3.org/2000/svg">
    <path d="M6.5 13.333c3.486 0 6.33 2.955 6.493 6.666H.007c.162-3.71 3.007-6.666 6.493-6.666zM6.818 0c.631 0 1.18.354 1.458.873l.096.033V1.99h.395v-.935A5.819 5.819 0 0 1 12.3 6h.213c.268 0 .486.218.486.486v1.027a.486.486 0 0 1-.486.487h-2.336c.144.417.222.866.222 1.333 0 2.21-1.746 4-3.9 4s-3.9-1.79-3.9-4c0-.467.078-.916.222-1.334H.486A.486.486 0 0 1 0 7.514V6.486C0 6.218.218 6 .486 6L.7 5.999a5.82 5.82 0 0 1 3.633-4.984v.975h.394V.873l.116-.036C5.126.337 5.664 0 6.28 0h.538z" fill="#626E8A" fill-rule="nonzero"/>
</svg>
