<svg width="6" height="40" viewBox="0 0 6 40" xmlns="http://www.w3.org/2000/svg">
    <path d="M5.812-78.454V56.522h-.489l.001-2.364-1.723 1.77.578.594h-.453l-.351-.362-.353.362h-.436l.58-.594-1.723-1.77v2.364H.937V-73.392l4.874-5.062zM3.375 52.156l-1.723 1.77 1.723 1.77 1.723-1.77-1.723-1.77zm-1.932-2.003v3.54l1.723-1.77-1.723-1.77zm3.881 0-1.723 1.77 1.723 1.77v-3.54zm-.226-.232H1.652l1.723 1.77 1.723-1.77zm.226-.769H1.426v.5h3.898v-.5zm-1.949-2.204-1.723 1.77h3.446l-1.723-1.77zm1.95-2.002L3.6 46.716l1.723 1.77v-3.54zm-3.882 0v3.54l1.723-1.77-1.723-1.77zm1.932-2.003-1.723 1.77 1.723 1.77 1.723-1.77-1.723-1.77zm1.95-2.002L3.6 42.711l1.723 1.77v-3.54zm-3.882 0v3.54l1.723-1.77-1.723-1.77zm3.655-.232H1.652l1.723 1.77 1.723-1.77zm.226-.769H1.426v.5h3.898v-.5zm-1.949-2.204-1.723 1.77h3.446l-1.723-1.77zm-1.932-2.002v3.54l1.723-1.77-1.723-1.77zm3.881 0-1.723 1.77 1.723 1.77v-3.54zM3.375 33.73l-1.723 1.77 1.723 1.77 1.723-1.77-1.723-1.77zm1.95-2.002L3.6 33.5l1.723 1.77v-3.54zm-3.882 0v3.54l1.723-1.77-1.723-1.77zm3.655-.232H1.652l1.723 1.77 1.723-1.77zm.226-.77H1.426v.502h3.898v-.501zm-1.949-2.203-1.723 1.77h3.446l-1.723-1.77zm1.95-2.002L3.6 28.292l1.723 1.77v-3.54zm-3.882 0v3.54l1.723-1.77-1.723-1.77zm1.932-2.003-1.723 1.77 1.723 1.77 1.723-1.77-1.723-1.77zm-1.932-2.002v3.54l1.723-1.77-1.723-1.77zm3.881 0-1.723 1.77 1.723 1.77v-3.54zm-.226-.232H1.652l1.723 1.77 1.723-1.77zm.226-.77H1.426v.502h3.898v-.501zm-1.949-2.203-1.723 1.77h3.446l-1.723-1.77zM1.443 17.31v3.54l1.723-1.77-1.723-1.77zm3.881 0-1.723 1.77 1.723 1.77v-3.54zm-1.949-2.003-1.723 1.77 1.723 1.77 1.723-1.77-1.723-1.77zm-1.932-2.002v3.54l1.723-1.77-1.723-1.77zm3.881 0-1.723 1.77 1.723 1.77v-3.54zm-.226-.232H1.652l1.723 1.77 1.723-1.77zm.226-.77H1.426v.501h3.898v-.5zM3.375 10.1l-1.723 1.77h3.446L3.375 10.1zm1.95-2.002L3.6 9.868l1.723 1.77v-3.54zm-3.882 0v3.54l1.723-1.77-1.723-1.77zm1.932-2.003-1.723 1.77 1.723 1.77 1.723-1.77-1.723-1.77zm1.95-2.002L3.6 5.863l1.723 1.77v-3.54zm-3.882 0v3.54l1.723-1.77-1.723-1.77zm3.655-.232H1.652l1.723 1.77 1.723-1.77zm.226-.77H1.426v.501h3.898v-.5zM3.375.889l-1.723 1.77h3.446L3.375.888zm1.95-2.002L3.6.656l1.723 1.77v-3.54zm-3.882 0v3.54L3.166.655l-1.723-1.77zm1.932-2.003-1.723 1.77L3.375.423l1.723-1.77-1.723-1.77zm1.95-2.002L3.6-3.349l1.723 1.77v-3.54zm-3.882 0v3.54l1.723-1.77-1.723-1.77zm3.655-.232H1.652l1.723 1.77 1.723-1.77zm.226-.77H1.426v.501h3.898v-.5zM3.375-7.967l-1.723 1.77h3.446l-1.723-1.77zM1.443-9.97v3.54L3.166-8.2 1.443-9.97zm3.881 0L3.601-8.2l1.723 1.77v-3.54zm-1.949-2.002-1.723 1.77 1.723 1.77 1.723-1.77-1.723-1.77zm-1.932-2.003v3.54l1.723-1.77-1.723-1.77zm3.881 0-1.723 1.77 1.723 1.77v-3.54zm-.226-.232H1.652l1.723 1.77 1.723-1.77zm.226-.769H1.426v.5h3.898v-.5zm-1.949-2.002-1.723 1.77h3.446l-1.723-1.77zm1.95-2.002L3.6-17.21l1.723 1.77v-3.54zm-3.882 0v3.54l1.723-1.77-1.723-1.77zm1.932-2.003-1.723 1.77 1.723 1.77 1.723-1.77-1.723-1.77zm1.95-2.002L3.6-21.215l1.723 1.77v-3.54zm-3.882 0v3.54l1.723-1.77-1.723-1.77zm3.655-.232H1.652l1.723 1.77 1.723-1.77zm.226-.77H1.426v.501h3.898v-.5zm-1.949-2.001-1.723 1.77h3.446l-1.723-1.77zm1.95-2.003L3.6-26.22l1.723 1.77v-3.54zm-3.882 0v3.54l1.723-1.77-1.723-1.77zm1.932-2.002-1.723 1.77 1.723 1.77 1.723-1.77-1.723-1.77zm1.95-2.002L3.6-30.225l1.723 1.77v-3.54zm-3.882 0v3.54l1.723-1.77-1.723-1.77zm3.655-.233H1.652l1.723 1.77 1.723-1.77zm.226-.768H1.426v.5h3.898v-.5zM3.375-35l-1.723 1.77h3.446l-1.723-1.77zM5.325-37 3.6-35.231l1.723 1.77v-3.54zm-3.882 0v3.54l1.723-1.77-1.723-1.77zm1.932-2.002-1.723 1.77 1.723 1.77 1.723-1.77-1.723-1.77zm1.95-2.003L3.6-39.236l1.723 1.77v-3.54zm-3.882 0v3.54l1.723-1.77-1.723-1.77zm3.655-.232H1.652l1.723 1.77 1.723-1.77zm.226-.769H1.426v.5h3.898v-.5zm-1.949-2.002-1.723 1.77h3.446l-1.723-1.77zm1.95-2.002L3.6-44.241l1.723 1.77v-3.54zm-3.882 0v3.54l1.723-1.77-1.723-1.77zm1.932-2.003-1.723 1.77 1.723 1.77 1.723-1.77-1.723-1.77zm1.95-2.002L3.6-48.246l1.723 1.77v-3.54zm-3.882 0v3.54l1.723-1.77-1.723-1.77zm3.655-.233H1.652l1.723 1.77 1.723-1.77zm.226-.768H1.426v.5h3.898v-.5zM3.375-53.02l-1.723 1.77h3.446l-1.723-1.77zm1.95-2.002L3.6-53.252l1.723 1.77v-3.54zm-3.882 0v3.54l1.723-1.77-1.723-1.77zm1.932-2.002-1.723 1.77 1.723 1.77 1.723-1.77-1.723-1.77zm1.95-2.002L3.6-57.256l1.723 1.77v-3.54zm-3.882 0v3.54l1.723-1.77-1.723-1.77zm3.655-.233H1.652l1.723 1.77 1.723-1.77zm.226-.769H1.426v.5h3.898v-.5zM3.375-62.03l-1.723 1.77h3.446l-1.723-1.77zm1.95-2.002L3.6-62.262l1.723 1.77v-3.54zm-3.882 0v3.54l1.723-1.77-1.723-1.77zm1.932-2.003-1.723 1.77 1.723 1.77 1.723-1.77-1.723-1.77zm1.95-2.002L3.6-66.267l1.723 1.77v-3.54zm-3.882 0v3.54l1.723-1.77-1.723-1.77zm3.655-.232H1.652l1.723 1.77 1.723-1.77zm.226-.769H1.426v.5h3.898v-.5zM3.375-71.04l-1.723 1.77h3.446l-1.723-1.77zm1.95-2.003L3.6-71.273l1.723 1.77v-3.54zm-3.882 0v3.54l1.723-1.77-1.723-1.77zm1.932-2.002-1.723 1.77 1.723 1.77 1.723-1.77-1.723-1.77zm1.95-2.002L3.6-75.277l1.723 1.77v-3.54z" fill="#575B62" fill-rule="nonzero"/>
</svg>
