<svg width="24" height="40" viewBox="0 0 24 40" xmlns="http://www.w3.org/2000/svg" xmlns:xlink="http://www.w3.org/1999/xlink">
    <defs>
        <path id="d4qama9ora" d="M0 0h23.148v39.468H0z"/>
    </defs>
    <g transform="translate(.8 .422)" fill="none" fill-rule="evenodd">
        <mask id="hoavf4r2xb" fill="#fff">
            <use xlink:href="#d4qama9ora"/>
        </mask>
        <path d="M14.01-78.877V56.1h-.488l.001-2.364-1.723 1.77.578.594h-.453l-.35-.361-.354.361h-.436l.58-.594-1.723-1.77V56.1h-.505V-73.814l4.874-5.063zm-2.436 130.61-1.723 1.77 1.723 1.77 1.723-1.77-1.723-1.77zm-1.932-2.002v3.54l1.723-1.77-1.723-1.77zm3.881 0L11.8 51.5l1.723 1.77v-3.54zm-.226-.233H9.851l1.723 1.77 1.723-1.77zm.226-.769H9.625v.501h3.898v-.5zm-1.949-2.203-1.723 1.77h3.446l-1.723-1.77zm1.95-2.003-1.724 1.77 1.723 1.77v-3.54zm-3.882 0v3.54l1.723-1.77-1.723-1.77zm1.932-2.002-1.723 1.77 1.723 1.77 1.723-1.77-1.723-1.77zm1.95-2.002-1.724 1.77 1.723 1.77v-3.54zm-3.882 0v3.54l1.723-1.77-1.723-1.77zm3.655-.233H9.851l1.723 1.77 1.723-1.77zm.226-.769H9.625v.501h3.898v-.5zm-1.949-2.203-1.723 1.77h3.446l-1.723-1.77zM9.642 35.31v3.54l1.723-1.77-1.723-1.77zm3.881 0-1.723 1.77 1.723 1.77v-3.54zm-1.949-2.002-1.723 1.77 1.723 1.77 1.723-1.77-1.723-1.77zm1.95-2.002-1.724 1.77 1.723 1.77v-3.54zm-3.882 0v3.54l1.723-1.77-1.723-1.77zm3.655-.233H9.851l1.723 1.77 1.723-1.77zm.226-.769H9.625v.501h3.898v-.5zm-1.949-2.203-1.723 1.77h3.446l-1.723-1.77zm1.95-2.003L11.8 27.87l1.723 1.77v-3.54zm-3.882 0v3.54l1.723-1.77-1.723-1.77zm1.932-2.002-1.723 1.77 1.723 1.77 1.723-1.77-1.723-1.77zm-1.932-2.002v3.54l1.723-1.77-1.723-1.77zm3.881 0-1.723 1.77 1.723 1.77v-3.54zm-.226-.233H9.851l1.723 1.77 1.723-1.77zm.226-.769H9.625v.501h3.898v-.5zm-1.949-2.203-1.723 1.77h3.446l-1.723-1.77zm-1.932-2.003v3.54l1.723-1.77-1.723-1.77zm3.881 0-1.723 1.77 1.723 1.77v-3.54zm-1.949-2.002-1.723 1.77 1.723 1.77 1.723-1.77-1.723-1.77zm-1.932-2.002v3.54l1.723-1.77-1.723-1.77zm3.881 0-1.723 1.77 1.723 1.77v-3.54zm-.226-.233H9.851l1.723 1.77 1.723-1.77zm.226-.769H9.625v.501h3.898v-.5zm-1.949-2.203-1.723 1.77h3.446l-1.723-1.77zm1.95-2.003L11.8 9.445l1.723 1.77v-3.54zm-3.882 0v3.54l1.723-1.77-1.723-1.77zm1.932-2.002-1.723 1.77 1.723 1.77 1.723-1.77-1.723-1.77zm1.95-2.002L11.8 5.44l1.723 1.77V3.67zm-3.882 0v3.54l1.723-1.77-1.723-1.77zm3.655-.233H9.851l1.723 1.77 1.723-1.77zm.226-.769H9.625v.501h3.898v-.5zM11.574.466l-1.723 1.77h3.446L11.574.465zm1.95-2.003L11.8.233l1.723 1.77v-3.54zm-3.882 0v3.54l1.723-1.77-1.723-1.77zm1.932-2.002L9.851-1.77 11.574 0l1.723-1.77-1.723-1.77zm1.95-2.002L11.8-3.771l1.723 1.77v-3.54zm-3.882 0v3.54l1.723-1.77-1.723-1.77zm3.655-.233H9.851l1.723 1.77 1.723-1.77zm.226-.769H9.625v.501h3.898v-.5zM11.574-8.39 9.851-6.62h3.446l-1.723-1.77zm-1.932-2.002v3.54l1.723-1.77-1.723-1.77zm3.881 0L11.8-8.622l1.723 1.77v-3.54zm-1.949-2.003-1.723 1.77 1.723 1.77 1.723-1.77-1.723-1.77zm-1.932-2.002v3.54l1.723-1.77-1.723-1.77zm3.881 0-1.723 1.77 1.723 1.77v-3.54zm-.226-.233H9.851l1.723 1.77 1.723-1.77zm.226-.768H9.625v.5h3.898v-.5zM11.574-17.4l-1.723 1.77h3.446l-1.723-1.77zm1.95-2.003-1.724 1.77 1.723 1.77v-3.54zm-3.882 0v3.54l1.723-1.77-1.723-1.77zm1.932-2.002-1.723 1.77 1.723 1.77 1.723-1.77-1.723-1.77zm1.95-2.002-1.724 1.77 1.723 1.77v-3.54zm-3.882 0v3.54l1.723-1.77-1.723-1.77zm3.655-.233H9.851l1.723 1.77 1.723-1.77zm.226-.769H9.625v.501h3.898v-.5zm-1.949-2.002-1.723 1.77h3.446l-1.723-1.77zm1.95-2.002-1.724 1.77 1.723 1.77v-3.54zm-3.882 0v3.54l1.723-1.77-1.723-1.77zm1.932-2.002-1.723 1.77 1.723 1.77 1.723-1.77-1.723-1.77zm1.95-2.003-1.724 1.77 1.723 1.77v-3.54zm-3.882 0v3.54l1.723-1.77-1.723-1.77zm3.655-.232H9.851l1.723 1.77 1.723-1.77zm.226-.769H9.625v.5h3.898v-.5zm-1.949-2.002-1.723 1.77h3.446l-1.723-1.77zm1.95-2.003-1.724 1.77 1.723 1.77v-3.54zm-3.882 0v3.54l1.723-1.77-1.723-1.77zm1.932-2.002-1.723 1.77 1.723 1.77 1.723-1.77-1.723-1.77zm1.95-2.002-1.724 1.77 1.723 1.77v-3.54zm-3.882 0v3.54l1.723-1.77-1.723-1.77zm3.655-.233H9.851l1.723 1.77 1.723-1.77zm.226-.768H9.625v.5h3.898v-.5zm-1.949-2.003-1.723 1.77h3.446l-1.723-1.77zm1.95-2.002-1.724 1.77 1.723 1.77v-3.54zm-3.882 0v3.54l1.723-1.77-1.723-1.77zm1.932-2.002-1.723 1.77 1.723 1.77 1.723-1.77-1.723-1.77zm1.95-2.003-1.724 1.77 1.723 1.77v-3.54zm-3.882 0v3.54l1.723-1.77-1.723-1.77zm3.655-.232H9.851l1.723 1.77 1.723-1.77zm.226-.769H9.625v.5h3.898v-.5zm-1.949-2.002-1.723 1.77h3.446l-1.723-1.77zm1.95-2.002-1.724 1.77 1.723 1.77v-3.54zm-3.882 0v3.54l1.723-1.77-1.723-1.77zm1.932-2.003-1.723 1.77 1.723 1.77 1.723-1.77-1.723-1.77zm1.95-2.002-1.724 1.77 1.723 1.77v-3.54zm-3.882 0v3.54l1.723-1.77-1.723-1.77zm3.655-.232H9.851l1.723 1.77 1.723-1.77zm.226-.77H9.625v.501h3.898v-.5zm-1.949-2.001-1.723 1.77h3.446l-1.723-1.77zm1.95-2.003-1.724 1.77 1.723 1.77v-3.54zm-3.882 0v3.54l1.723-1.77-1.723-1.77zm1.932-2.002-1.723 1.77 1.723 1.77 1.723-1.77-1.723-1.77zm1.95-2.002L11.8-66.69l1.723 1.77v-3.54zm-3.882 0v3.54l1.723-1.77-1.723-1.77zm3.655-.233H9.851l1.723 1.77 1.723-1.77zm.226-.769H9.625v.501h3.898v-.5zm-1.949-2.002-1.723 1.77h3.446l-1.723-1.77zm1.95-2.002-1.724 1.77 1.723 1.77v-3.54zm-3.882 0v3.54l1.723-1.77-1.723-1.77zm1.932-2.002-1.723 1.77 1.723 1.77 1.723-1.77-1.723-1.77zm1.95-2.003L11.8-75.7l1.723 1.77v-3.54z" fill="#575B62" fill-rule="nonzero" mask="url(#hoavf4r2xb)"/>
    </g>
</svg>
