<svg width="43" height="43" viewBox="0 0 43 43" xmlns="http://www.w3.org/2000/svg">
    <g fill-rule="nonzero" fill="none">
        <path d="m16.998 6.549 5.32 5.7.157.395v24.953l-.58.579h-5.32l-.579-.579V8.196l-5.41 2.212v10.505H9.43V9.63l6.567-2.685v-.001l.14-.056.22-.09.001.003.641-.252zm4.083 28.29-2.813 2.179h2.814V34.84zm-3.709-3.991v5.399l3.565-2.76-3.565-2.64zm3.71-3.973-3.539 2.66 3.538 2.619v-5.28zm-3.71-3.9v5.24l3.55-2.667-3.55-2.573zm3.71-4.177-3.554 2.86 3.553 2.577v-5.437zm-3.71-10.386v11.886l3.71-2.986v-4.44l-3.71-4.46z" fill="#A5A9B0"/>
        <path fill="#575B62" d="M9.454 11.671H33.965l4.655 6.713H9.454zM27.427 37.019v1.157H11.26v-1.157z"/>
        <path d="M33.308 17.4v5.894a3.589 3.589 0 1 1-4.178 3.599v-.06h1.157a2.43 2.43 0 1 0 2.788-2.404h-.924V17.4h1.157z" fill="#575B62"/>
    </g>
</svg>
