<svg width="32" height="39" viewBox="0 0 32 39" xmlns="http://www.w3.org/2000/svg">
    <g fill="none" fill-rule="evenodd">
        <path d="m16.001 1.477.222.166.202.151.3.223.294.218.29.212.38.276.37.267.182.13.27.191.264.187.26.18.255.177.167.115.247.168.242.163.237.158.156.102.154.1.226.147.221.142.217.136.142.089.14.086.137.083.136.082.133.08.131.077.193.111.126.072.124.07.121.067.12.065.117.063.116.06.113.059.111.056.055.027c.18.09.367.178.563.265l.17.075c.142.062.289.124.44.185l.182.074c.185.073.375.145.571.217l.198.071.304.107.208.07.105.036.213.07.217.069.221.069.225.068c.15.046.304.091.46.136l.237.068.12.033.24.067.123.033.248.066.251.066.127.032.257.065.13.033.263.064.133.032.268.064.272.063.276.063v15.251c0 3.233-1.668 6.225-4.385 7.865l-9.808 5.92-.043.026-.042-.026-9.809-5.92c-2.69-1.624-4.351-4.572-4.384-7.768V8.494l.275-.063.273-.063.268-.064.265-.064.13-.032.26-.065.255-.065.25-.066.248-.066.123-.033.242-.067.237-.067c.197-.056.39-.113.579-.17l.224-.068.221-.07c.073-.022.146-.045.217-.069l.214-.07c.21-.07.416-.14.616-.212l.198-.071.195-.072c.608-.229 1.16-.464 1.654-.705l.133-.066.11-.056.114-.059.115-.06.118-.063.12-.065.12-.067.125-.07.126-.072.192-.111.132-.078.133-.079.136-.082.207-.126.14-.087.143-.09.219-.138.148-.095.226-.146.154-.1.155-.103.238-.158.16-.108.329-.223.252-.173.256-.178.261-.183.266-.188.363-.258.277-.2.377-.273.288-.211.195-.143.396-.294.303-.226.222-.166.042-.033.043.033z" stroke="#A5A9B0" stroke-width="2.075" stroke-linecap="round" stroke-linejoin="round"/>
    </g>
</svg>
