<svg width="43" height="43" viewBox="0 0 43 43" xmlns="http://www.w3.org/2000/svg">
    <g fill="none" fill-rule="evenodd">
        <path d="M27.338 34.519h5.556l-.112.222a1.273 1.273 0 0 1-1.138.703h-3.022c-.439 0-.847-.226-1.08-.598l-.204-.327zM10.556 34.519h5.555L16 34.74a1.273 1.273 0 0 1-1.139.703H11.84c-.44 0-.847-.226-1.08-.598l-.204-.327zM16.383 21.324h10.799c1.361 0 2.669.533 3.642 1.485l3.806 3.723H8.935l3.806-3.723a5.208 5.208 0 0 1 3.642-1.485zM8.935 26.532l-1.035.87c1.09-.58 2.08-.87 2.967-.87H8.935zM34.63 26.532l1.055.98c-1.09-.653-2.083-.98-2.98-.98h1.925z" fill="#A5A9B0" fill-rule="nonzero"/>
        <path d="M33.067 26.532a3.993 3.993 0 1 1 0 7.987H10.382a3.993 3.993 0 0 1 0-7.987h22.685zm.29 3.01a.926.926 0 1 0 0 1.852.926.926 0 0 0 0-1.852zm-3.241 0a.926.926 0 1 0 0 1.852.926.926 0 0 0 0-1.852zm-3.241 0a.926.926 0 1 0 0 1.852.926.926 0 0 0 0-1.852zm-3.24 0a.926.926 0 1 0 0 1.852.926.926 0 0 0 0-1.852zm-3.241 0a.926.926 0 1 0 0 1.852.926.926 0 0 0 0-1.852zm-5.325 0h-4.976a.926.926 0 0 0 0 1.852h4.976a.926.926 0 0 0 0-1.852z" fill="#575B62" fill-rule="nonzero"/>
        <path d="M27.772 14.273c-.467-.01-.881.296-1.007.745l-2.292 8.18a.616.616 0 0 0 .58.782c.466.01.88-.296 1.006-.746l2.292-8.18a.616.616 0 0 0-.58-.781z" fill="#4B4F57" fill-rule="nonzero"/>
        <g fill-rule="nonzero" stroke="#4B4F57" stroke-linecap="round" stroke-linejoin="round" stroke-width="1.157">
            <path d="M35.03 12.872c-1.248-2.037-3.297-3.64-5.851-4.323-2.554-.685-5.13-.322-7.23.818M37.639 10.516c-1.61-2.578-4.242-4.612-7.516-5.49-3.275-.876-6.571-.432-9.254.996M31.491 13.781a5.112 5.112 0 0 0-3.05-2.255 5.112 5.112 0 0 0-3.77.428"/>
        </g>
    </g>
</svg>
