<svg width="43" height="43" viewBox="0 0 43 43" xmlns="http://www.w3.org/2000/svg">
    <g fill="#575B62" fill-rule="nonzero">
        <path d="m24.04 29.215-2.373 6.993-1.596-4.7 3.97-2.293zm1.984-5.839-1.597 4.704-4.615 2.665-1.074-3.163 7.286-4.206zm2.007-5.912-1.622 4.777-7.93 4.578-1.09-3.21 10.642-6.145zm2.085-6.14-1.7 5.005-11.286 6.517-1.09-3.21 13.946-8.052-.15-.26h.28zm-1.258 0-13.077 7.55-1.142-3.366 7.247-4.184h6.972zm-8.552 0-5.926 3.421-1.162-3.42h7.088z"/>
        <path d="M11.713 7.389h20.023v4.282H11.713z"/>
    </g>
</svg>
