<svg width="43" height="43" viewBox="0 0 43 43" xmlns="http://www.w3.org/2000/svg">
    <g fill="none" fill-rule="evenodd">
        <g fill-rule="nonzero">
            <path d="m21.298 5.777.193.144.176.132.26.193.256.189.253.185.33.24.322.231.158.113.235.166.23.162.226.157.221.154.146.1.215.145.21.142.207.137.135.089.134.087.197.127.192.123.189.119.123.077.122.074.12.073.117.071.116.069.114.067.168.097.11.062.107.06.106.06.104.056.102.054.1.053.1.05.096.05.047.023c.157.078.32.154.49.23l.148.065c.124.054.251.108.383.161l.159.064c.16.063.326.126.496.189l.173.062.264.092.18.061.092.031.186.06.189.061.192.06.195.06c.131.04.265.078.4.118l.206.058.104.03.21.057.107.029.215.057.219.057.11.029.224.056.113.028.229.056.115.028.234.055.237.055.24.055v13.247c0 2.808-1.451 5.406-3.815 6.83l-8.532 5.143-.038.022-.037-.022-8.532-5.142c-2.34-1.41-3.786-3.971-3.814-6.747V11.872l.24-.055.236-.055.234-.055.23-.056.114-.028.225-.056.222-.057.219-.057.215-.057.106-.029.21-.058.208-.058.503-.147.195-.06.192-.06.19-.06.185-.061c.183-.06.362-.122.536-.184l.172-.062.17-.063a16.54 16.54 0 0 0 1.439-.613l.115-.056.097-.05.098-.05.1-.053.103-.054.104-.057.105-.058.108-.06.11-.063.167-.097.115-.067.116-.069.117-.07.18-.11.123-.077.124-.077.19-.12.13-.083.196-.127.134-.087.135-.09.206-.136.14-.094.286-.194.219-.15.223-.155.227-.158.232-.164.315-.224.241-.173.328-.238.25-.183.17-.125.345-.255.263-.196.193-.145.037-.027.038.028z" fill="#C2C5CC" opacity=".4"/>
            <g fill="#575B62">
                <path d="M10.846 18.028h2.65v6.713h-2.65a.592.592 0 0 1-.591-.592v-5.53c0-.326.265-.591.591-.591zM14.691 17.66l5.186-2.828a.592.592 0 0 1 .867.422c.337 2.005.506 4.01.506 6.015 0 2.014-.17 4.028-.51 6.042a.592.592 0 0 1-.85.43l-5.165-2.603a1.183 1.183 0 0 1-.65-1.057v-5.383c0-.433.236-.831.616-1.039z"/>
            </g>
            <g stroke="#575B62" stroke-linecap="round" stroke-linejoin="round" stroke-width="1.794">
                <path d="M25.6 28.45c1.776-1.734 2.874-4.13 2.874-6.776 0-2.647-1.098-5.043-2.874-6.777"/>
                <path d="M27.96 30.412a12.367 12.367 0 0 0 3.59-8.738c0-3.413-1.372-6.502-3.59-8.739M24.204 25.24a5.1 5.1 0 0 0 1.436-3.566 5.1 5.1 0 0 0-1.436-3.567"/>
            </g>
        </g>
        <path d="M10.065 8.885c.4-.009.801.134 1.113.426l22.223 22.11c.31.308.464.711.465 1.115a1.575 1.575 0 0 1-1.577 1.58c-.404 0-.808-.153-1.117-.46L8.983 11.579a1.571 1.571 0 0 1-.464-1.115 1.575 1.575 0 0 1 1.547-1.58z" stroke="#EEF1F6" stroke-width="1.157" fill="#A5A9B0" fill-rule="nonzero"/>
        <path d="m21.293 3.477.222.166.202.151.3.223.294.218.29.212.38.276.37.267.182.13.27.191.264.187.26.18.254.177.168.115.246.168.243.163.237.158.156.102.153.1.226.147.222.142.217.136.142.089.14.086.137.083.135.082.134.08.13.077.194.111.126.072.123.07.122.067.12.065.117.063.115.06.114.059.11.056.055.027c.18.09.368.178.563.265l.17.075c.143.062.29.124.44.185l.183.074c.184.073.375.145.571.217l.198.071c.1.036.201.072.304.107l.208.07.105.036.213.07.217.069.22.069.226.068c.15.046.304.091.46.136l.236.068.12.033.242.067.122.033.247.066.252.066.127.032.257.065.13.033.263.064.132.032.269.064.272.063.276.063v15.251c0 3.233-1.668 6.225-4.385 7.865l-9.808 5.92-.043.026-.043-.026-9.808-5.92c-2.69-1.624-4.352-4.572-4.385-7.768V10.494l.276-.063.272-.063.269-.064.264-.064.131-.032.26-.065.254-.065.252-.066.247-.066.122-.033.242-.067.238-.067c.197-.056.39-.113.578-.17l.225-.068.221-.07c.073-.022.145-.045.217-.069l.213-.07c.212-.07.417-.14.617-.212l.198-.071.194-.072c.61-.229 1.16-.464 1.655-.705l.132-.066.111-.056.114-.059.115-.06.117-.063.12-.065.122-.067.123-.07.126-.072.193-.111.131-.078.134-.079.135-.082.207-.126.141-.087.143-.09.218-.138.149-.095.226-.146.153-.1.156-.103.237-.158.161-.108.328-.223.252-.173.257-.178.261-.183.266-.188.362-.258.277-.2.377-.273.289-.211.195-.143.396-.294.302-.226.222-.166.043-.033.043.033z" stroke="#A5A9B0" stroke-width="2.075" stroke-linecap="round" stroke-linejoin="round"/>
    </g>
</svg>
