<svg width="42" height="42" viewBox="0 0 42 42" xmlns="http://www.w3.org/2000/svg">
    <g transform="translate(4.648 6.921)" fill-rule="nonzero" fill="none">
        <path d="M7.407 9.49v6.945a4.63 4.63 0 0 0 4.63 4.63l.057-.001v5.787h-1.099a9.375 9.375 0 0 1-9.375-9.374V9.49h5.787zM28.241 1.39v5.787a4.63 4.63 0 0 0-4.63 4.63v5.67a9.375 9.375 0 0 1-9.375 9.376l-.985-.001v-5.788l.155-.003a4.63 4.63 0 0 0 4.418-4.625v-5.787a9.26 9.26 0 0 1 9.26-9.26h1.157z" fill="#A5A9B0"/>
        <rect fill="#575B62" y="4.861" width="8.681" height="4.63" rx=".579"/>
        <path d="M32.87.579v7.523c0 .32-.259.579-.578.579h-3.473a.579.579 0 0 1-.578-.58V.58c0-.32.259-.579.578-.579h3.473c.32 0 .578.26.578.579zM14.988 19.907v7.524c0 .32-.259.578-.578.578h-3.473a.579.579 0 0 1-.578-.578v-7.524c0-.32.259-.578.578-.578h3.473c.32 0 .578.259.578.578z" fill="#575B62"/>
    </g>
</svg>
