<svg width="42" height="43" viewBox="0 0 42 43" xmlns="http://www.w3.org/2000/svg">
    <g transform="translate(6.037 5.653)" fill-rule="nonzero" fill="none">
        <path fill="#A5A9B0" d="m13.91 15.364 1.693.753-5.792 13.02-1.692-.752z"/>
        <path fill="#A5A9B0" d="m3.245 13.72 11.542 1.099-.176 1.843L3.07 15.563z"/>
        <path fill="#A5A9B0" d="m14.993 4.36 1.842.191L15.62 16.28l-1.842-.19z"/>
        <path d="M27.141 11.748V13.6h.053l.017-.002-.068.013-.133.028-.284.064-.274.064c-.435.102-1.029.246-1.781.43l-1.992.495c-1.71.428-3.887.978-6.531 1.65l-1.163.296-.457-1.795 3.358-.853c6.204-1.573 8.885-2.227 9.244-2.242h.011z" fill="#A5A9B0"/>
        <path fill="#A5A9B0" d="m15.335 14.72 10.359 9.78-1.272 1.347-10.359-9.78z"/>
        <circle fill="#575B62" cx="14.699" cy="15.394" r="4.282"/>
        <circle fill="#575B62" cx="8.507" cy="28.762" r="3.299"/>
        <circle fill="#575B62" cx="2.72" cy="14.641" r="2.72"/>
        <circle fill="#575B62" cx="16.262" cy="2.72" r="2.72"/>
        <circle fill="#575B62" cx="27.141" cy="12.674" r="3.067"/>
        <circle fill="#575B62" cx="25.637" cy="25.752" r="2.72"/>
    </g>
</svg>
