<svg width="43" height="42" viewBox="0 0 43 42" xmlns="http://www.w3.org/2000/svg" xmlns:xlink="http://www.w3.org/1999/xlink">
    <defs>
        <path d="M23.06 24.653c3.062 0 5.335 2.769 6.82 8.307l.097.373-2.315-.001v.001H2.431v-.001L0 33.333c1.481-5.787 3.787-8.68 6.917-8.68h4.079c0 .93.307 1.82.92 2.668.625.865 1.628 1.771 3.01 2.72 1.321-.864 2.324-1.77 3.01-2.72.686-.949.992-1.855.92-2.72l.002.051h4.202z" id="e80mkwqxda"/>
    </defs>
    <g fill="none" fill-rule="evenodd">
        <g transform="translate(.995 4.019)" fill="#A5A9B0" fill-rule="nonzero">
            <use xlink:href="#e80mkwqxda"/>
            <path d="m22.366 13.772.126.052c.93.44 1.107 1.867 1.123 2.71l.002.135c0 .951-.595 1.797-1.52 2.338a7.36 7.36 0 0 1-14.21.072c-.998-.534-1.65-1.415-1.65-2.41 0-.817.143-2.38 1.125-2.845l.121-.052h14.883zM15.916 0c.725 0 1.359.392 1.7.976v2.057h1.157v-1.22a8.938 8.938 0 0 1 5.015 7.793h.98c.32 0 .58.26.58.58v1.542c0 .32-.26.58-.58.58H5.094a.579.579 0 0 1-.58-.58v-1.543c0-.32.26-.579.58-.579h.826l.002-.064a8.94 8.94 0 0 1 5.137-7.788v1.279h1.157l-.001-2.004A1.964 1.964 0 0 1 13.942 0h1.974z"/>
        </g>
        <g transform="translate(8.766 4.948)" fill-rule="nonzero">
            <path stroke="#575B62" stroke-width="2.315" d="m10.718 21.727-4.716 4.774"/>
            <circle stroke="#575B62" stroke-width="2.778" fill-opacity=".9" fill="#EEF1F6" stroke-linecap="round" stroke-linejoin="round" cx="18.849" cy="12.384" r="12.384"/>
            <path stroke="#575B62" stroke-width="3.472" d="m5.539 26.849-5.44 5.439"/>
            <g transform="translate(15.84 10.413)">
                <circle fill="#575B62" cx="3.414" cy="3.414" r="3.414"/>
                <circle fill="#EDF1F5" cx="5.612" cy="2.347" r="1"/>
            </g>
            <path d="M27.369 9.545c-.138-.005-2.665-1.714-7.694-1.89-1.426-.05-4.029.4-7.806 1.349" stroke="#575B62" stroke-width="1.736" stroke-linecap="round"/>
            <ellipse stroke="#575B62" stroke-width="1.736" stroke-linecap="round" cx="19.254" cy="13.654" rx="6.887" ry="3.704"/>
        </g>
    </g>
</svg>
