<svg width="43" height="42" viewBox="0 0 43 42" xmlns="http://www.w3.org/2000/svg">
    <g fill-rule="nonzero" fill="none">
        <path d="m20.653 20.376.026.022 8.098 7.184a5.37 5.37 0 0 0 2.004-2.519l.024-.063c.164-.443.58-.74 1.05-.754h3.505a1.157 1.157 0 0 1 .032 2.314h-2.744l-.017.034a7.68 7.68 0 0 1-2.085 2.559l6.248 5.541a1.157 1.157 0 0 1-1.51 1.755l-.026-.023-6.848-6.075a7.678 7.678 0 0 1-2.549.468H14.97a4.398 4.398 0 1 1-2.28-2.937l6.343-7.373a1.157 1.157 0 0 1 1.62-.133zm-9.972 9.337a2.083 2.083 0 1 0 2.044 1.68l-1.18 1.372a1.157 1.157 0 0 1-1.606.145l-.026-.022a1.157 1.157 0 0 1-.145-1.605l.022-.027 1.293-1.504a2.094 2.094 0 0 0-.402-.039zm9.34-6.803-4.813 5.594 10.557.001c.18 0 .357-.009.533-.026l-6.276-5.57z" fill="#A5A9B0"/>
        <path d="M23.646 9.071c3.124 1.804 5.82 4.349 8.088 7.635L25.31 27.832c-4.03-.233-7.607-1.252-10.731-3.056a21.661 21.661 0 0 1-2.083-1.368l8.927-15.464c.764.337 1.505.712 2.223 1.127zM12.99 5.885c2.213.178 4.295.586 6.243 1.223L10.687 21.91c-1.514-1.39-2.887-3.024-4.12-4.9L12.99 5.885z" fill="#575B62"/>
    </g>
</svg>
