<svg width="43" height="42" viewBox="0 0 43 42" xmlns="http://www.w3.org/2000/svg">
    <g fill-rule="nonzero" fill="none">
        <path d="M22.564 6.227c1.116 0 2.069.696 2.448 1.678l-.001 2.347h1.602l.001-1.492a11.924 11.924 0 0 1 6.367 9.174h1.386c.426 0 .772.346.772.772v2.04a.772.772 0 0 1-.772.773H8.133a.772.772 0 0 1-.772-.772v-2.041c0-.426.346-.772.772-.772h1.18a11.926 11.926 0 0 1 6.616-9.3v1.618h1.603l-.001-2.459a2.622 2.622 0 0 1 2.4-1.566h2.633z" fill="#575B62"/>
        <path d="M14.041 23.355a9.788 9.788 0 0 0-.013.512c0 2.335.842 4.258 2.526 5.769 1.574 1.403 3.281 2.104 5.12 2.104 1.565 0 2.971-.525 4.218-1.575 1.247-1.058 1.943-2.325 2.09-3.8h-5.257v-2.973h8.71v.692l-.005.467c-.034 1.385-.219 2.623-.555 3.714-.364 1.122-.978 2.172-1.843 3.15-1.957 2.19-4.446 3.284-7.468 3.284-2.949 0-5.474-1.059-7.577-3.176-2.102-2.127-3.154-4.679-3.154-7.656 0-.172.004-.342.01-.51z" fill="#A5A9B0"/>
    </g>
</svg>
