<svg width="43" height="43" viewBox="0 0 43 43" xmlns="http://www.w3.org/2000/svg">
    <g fill-rule="nonzero" fill="none">
        <path d="M30.519 9.528a1.736 1.736 0 1 1 0 3.472h-2.804a6.366 6.366 0 0 1-12.68 0h-2.804a1.736 1.736 0 0 1 0-3.472H30.52z" fill="#575B62"/>
        <path d="M21.368 28.861a1.157 1.157 0 0 1 1.16 1.156l.001 1.041a1.157 1.157 0 0 1-2.315.004l-.001-1.042a1.157 1.157 0 0 1 1.155-1.159zm10.303-1.175.696.74a1.157 1.157 0 1 1-1.686 1.586l-.696-.74a1.157 1.157 0 0 1 1.686-1.586zm-20.628 0a1.157 1.157 0 0 1 1.686 1.586l-.696.74a1.157 1.157 0 0 1-1.686-1.585zm10.318-3.57a1.157 1.157 0 0 1 1.16 1.155l.001 1.042a1.157 1.157 0 0 1-2.315.003l-.001-1.041a1.157 1.157 0 0 1 1.155-1.16zm7.06.113.713.759a1.157 1.157 0 1 1-1.687 1.586l-.713-.76a1.157 1.157 0 1 1 1.686-1.585zm-14.128 0a1.157 1.157 0 0 1 1.687 1.586l-.714.759a1.157 1.157 0 0 1-1.686-1.586zm10.877-3.457.713.759a1.157 1.157 0 1 1-1.686 1.586l-.714-.76a1.157 1.157 0 0 1 1.687-1.585zm-7.626 0a1.157 1.157 0 0 1 1.687 1.586l-.714.759a1.157 1.157 0 0 1-1.686-1.586z" fill="#A5A9B0"/>
    </g>
</svg>
