<svg width="42" height="43" viewBox="0 0 42 43" xmlns="http://www.w3.org/2000/svg">
    <g fill="none" fill-rule="evenodd">
        <path d="m21.006 5.777.193.144.176.132.26.193.257.189.252.185.33.24.322.231.159.113.234.166.23.162.226.157.222.154.145.1.215.145.21.142.207.137.136.089.133.087.197.127.193.123.188.119.124.077.121.074.12.073.118.071.116.069.114.067.168.097.11.062.107.06.106.06.104.056.102.054.1.053.099.05.096.05.048.023c.156.078.32.154.49.23l.147.065c.124.054.252.108.383.161l.159.064c.16.063.326.126.497.189l.172.062c.087.03.175.062.265.092l.18.061.092.031.185.06.189.061.192.06.195.06c.132.04.265.078.401.118l.206.058.104.03.21.057.106.029.216.057.218.057.11.029.224.056.113.028.229.056.115.028.234.055.237.055.24.055v13.247c0 2.808-1.451 5.406-3.815 6.83l-8.532 5.143-.037.022-.037-.022-8.533-5.142c-2.34-1.41-3.785-3.971-3.814-6.747V11.872l.24-.055.236-.055.234-.055.23-.056.114-.028.225-.056.222-.057.219-.057.215-.057.107-.029.21-.058.207-.058c.171-.049.339-.098.503-.147l.195-.06.193-.06.188-.06.186-.061c.184-.06.363-.122.536-.184l.173-.062.169-.063a16.54 16.54 0 0 0 1.44-.613l.114-.056.097-.05.098-.05.1-.053.103-.054.104-.057.106-.058.107-.06.11-.063.168-.097.114-.067.116-.069.118-.07.18-.11.122-.077.125-.077.19-.12.129-.083.196-.127.134-.087.135-.09.207-.136.14-.094.285-.194.22-.15.222-.155.228-.158.231-.164.315-.224.241-.173.328-.238.251-.183.17-.125.344-.255.264-.196.193-.145.037-.027.037.028z" fill="#C2C5CC" fill-rule="nonzero" opacity=".4"/>
        <path d="m20.958 10.968 6.187 9.903a7.296 7.296 0 0 1-5.872 11.155l-.315.006a7.296 7.296 0 0 1-6.188-11.161l6.188-9.903zm4.391 12.401a.64.64 0 0 0-.602.677c.137 2.32-.628 3.694-2.326 4.298a.64.64 0 1 0 .43 1.206c2.275-.81 3.344-2.727 3.175-5.58a.64.64 0 0 0-.677-.6z" fill="#575B62" fill-rule="nonzero"/>
        <path d="M9.774 8.885c.399-.009.8.134 1.113.426l22.222 22.11c.31.308.464.711.465 1.115a1.575 1.575 0 0 1-1.577 1.58c-.403 0-.808-.153-1.116-.46L8.69 11.579a1.571 1.571 0 0 1-.464-1.115 1.575 1.575 0 0 1 1.547-1.58z" stroke="#EEF1F6" stroke-width="1.157" fill="#A5A9B0" fill-rule="nonzero"/>
        <path d="m21.001 3.477.222.166.202.151.3.223.294.218.29.212.38.276.37.267.182.13.27.191.264.187.26.18.255.177.167.115.247.168.242.163.237.158.156.102.154.1.226.147.221.142.217.136.142.089.14.086.137.083.136.082.133.08.131.077.193.111.126.072.124.07.121.067.12.065.117.063.116.06.113.059.111.056.055.027c.18.09.367.178.563.265l.17.075c.142.062.289.124.44.185l.182.074c.185.073.375.145.571.217l.198.071.304.107.208.07.105.036.213.07.217.069.221.069.225.068c.15.046.304.091.46.136l.237.068.12.033.24.067.123.033.248.066.251.066.127.032.257.065.13.033.263.064.133.032.268.064.272.063.276.063v15.251c0 3.233-1.668 6.225-4.385 7.865l-9.808 5.92-.043.026-.042-.026-9.809-5.92c-2.69-1.624-4.351-4.572-4.384-7.768V10.494l.275-.063.273-.063.268-.064.265-.064.13-.032.26-.065.255-.065.25-.066.248-.066.123-.033.242-.067.237-.067c.197-.056.39-.113.579-.17l.224-.068.221-.07c.073-.022.146-.045.217-.069l.214-.07c.21-.07.416-.14.616-.212l.198-.071.195-.072c.608-.229 1.16-.464 1.654-.705l.133-.066.11-.056.114-.059.115-.06.118-.063.12-.065.12-.067.125-.07.126-.072.192-.111.132-.078.133-.079.136-.082.207-.126.14-.087.143-.09.219-.138.148-.095.226-.146.154-.1.155-.103.238-.158.16-.108.329-.223.252-.173.256-.178.261-.183.266-.188.363-.258.277-.2.377-.273.288-.211.195-.143.396-.294.303-.226.222-.166.042-.033.043.033z" stroke="#A5A9B0" stroke-width="2.075" stroke-linecap="round" stroke-linejoin="round"/>
    </g>
</svg>
