<svg width="42" height="43" viewBox="0 0 42 43" xmlns="http://www.w3.org/2000/svg">
    <g transform="translate(4.87 5.472)" fill="#575B62" fill-rule="nonzero">
        <rect y="4.945" width="32.639" height="1.319" rx=".659"/>
        <rect y="9.231" width="32.639" height="1.319" rx=".659"/>
        <rect y="13.517" width="32.639" height="1.319" rx=".659"/>
        <rect y="17.803" width="32.639" height="1.319" rx=".659"/>
        <rect y="22.089" width="32.639" height="1.319" rx=".659"/>
        <rect y="26.375" width="32.639" height="1.319" rx=".659"/>
        <path d="M27.694.66v31.32a.66.66 0 1 1-1.32 0V.66a.66.66 0 1 1 1.32 0zM23.408.66v31.32a.66.66 0 1 1-1.32 0V.66a.66.66 0 1 1 1.32 0zM19.122.66v31.32a.66.66 0 1 1-1.319 0V.66a.66.66 0 1 1 1.319 0zM14.836.66v31.32a.66.66 0 1 1-1.319 0V.66a.66.66 0 1 1 1.319 0zM10.55.66v31.32a.66.66 0 1 1-1.319 0V.66a.66.66 0 1 1 1.319 0zM6.264.66v31.32a.66.66 0 1 1-1.319 0V.66a.66.66 0 1 1 1.319 0z"/>
    </g>
</svg>
