<svg width="43" height="43" viewBox="0 0 43 43" xmlns="http://www.w3.org/2000/svg">
    <g fill-rule="nonzero" fill="none">
        <path d="M18.097 5.2c.036 0 .073.002.11.009l14.28 2.542v27.687l-14.28 2.542a.626.626 0 0 1-.736-.616V5.824c0-.345.28-.625.626-.625zm3.316 14.893c-.657 0-1.19.476-1.19 1.063 0 .588.533 1.064 1.19 1.064.656 0 1.188-.476 1.188-1.064 0-.587-.532-1.063-1.188-1.063z" fill="#A5A9B0"/>
        <path d="M15.996 7.89v2.503H11.84V36.73H8.947l-.001-26.338h-.01V7.891h7.06z" fill="#575B62"/>
    </g>
</svg>
