<svg width="32" height="39" viewBox="0 0 32 39" xmlns="http://www.w3.org/2000/svg">
    <g fill="none" fill-rule="evenodd">
        <path d="m16.293 1.477.222.166.202.151.3.223.294.218.29.212.38.276.37.267.182.13.27.191.264.187.26.18.254.177.168.115.246.168.243.163.237.158.156.102.153.1.226.147.222.142.217.136.142.089.14.086.137.083.135.082.134.08.13.077.194.111.126.072.123.07.122.067.12.065.117.063.115.06.114.059.11.056.055.027c.18.09.368.178.563.265l.17.075c.143.062.29.124.44.185l.183.074c.184.073.375.145.571.217l.198.071c.1.036.201.072.304.107l.208.07.105.036.213.07.217.069.22.069.226.068c.15.046.304.091.46.136l.236.068.12.033.242.067.122.033.247.066.252.066.127.032.257.065.13.033.263.064.132.032.269.064.272.063.276.063v15.251c0 3.233-1.668 6.225-4.385 7.865l-9.808 5.92-.043.026-.043-.026L6.4 31.61c-2.69-1.624-4.352-4.572-4.385-7.768V8.494l.276-.063.272-.063.269-.064.264-.064.131-.032.26-.065.254-.065.252-.066.247-.066.122-.033.242-.067.238-.067c.197-.056.39-.113.578-.17l.225-.068.221-.07c.073-.022.145-.045.217-.069l.213-.07c.212-.07.417-.14.617-.212l.198-.071.194-.072c.61-.229 1.16-.464 1.655-.705l.132-.066.111-.056.114-.059.115-.06.117-.063.12-.065.122-.067.123-.07.126-.072.193-.111.131-.078.134-.079.135-.082.207-.126.141-.087.143-.09.218-.138.149-.095.226-.146.153-.1.156-.103.237-.158.161-.108.328-.223.252-.173.257-.178.261-.183.266-.188.362-.258.277-.2.377-.273.289-.211.195-.143.396-.294.302-.226.222-.166.043-.033.043.033z" stroke="#A5A9B0" stroke-width="2.075" stroke-linecap="round" stroke-linejoin="round"/>
    </g>
</svg>
