<svg width="43" height="43" viewBox="0 0 43 43" xmlns="http://www.w3.org/2000/svg">
    <g transform="translate(2.616 8.708)" fill-rule="nonzero" fill="none">
        <rect fill="#575B62" x="13.542" y="2.894" width="10.532" height="22.454" rx=".579"/>
        <rect fill="#7F848D" x="2.199" y="2.894" width="10.532" height="6.366" rx=".579"/>
        <rect fill="#A5A9B0" opacity=".6" width="37.384" height="2.083" rx="1.042"/>
        <rect fill="#7F848D" x="2.199" y="10.069" width="10.532" height="6.366" rx=".579"/>
        <rect fill="#7F848D" x="2.199" y="17.245" width="10.532" height="8.102" rx=".579"/>
        <rect fill="#575B62" transform="matrix(-1 0 0 1 60.3 0)" x="24.884" y="2.894" width="10.532" height="22.454" rx=".579"/>
        <path d="M8.45 4.456c0 .32-.26.579-.58.579h-.694a.579.579 0 1 1 0-1.158h.694c.32 0 .58.26.58.579zM8.45 11.863c0 .32-.26.58-.58.58h-.694a.579.579 0 1 1 0-1.158h.694c.32 0 .58.259.58.578zM8.45 19.155c0 .32-.26.579-.58.579h-.694a.579.579 0 0 1 0-1.158h.694c.32 0 .58.26.58.58z" fill="#EEF1F6"/>
        <rect fill="#EEF1F6" x="26.62" y="12.269" width="1.62" height="1.968" rx=".81"/>
        <rect fill="#EEF1F6" x="20.833" y="12.269" width="1.62" height="1.968" rx=".81"/>
    </g>
</svg>
