<svg width="43" height="43" viewBox="0 0 43 43" xmlns="http://www.w3.org/2000/svg">
    <path d="M19.294 5.708c2.322 1.497 5.504 4.349 9.546 8.556 3.93 4.09 5.779 8.465 5.548 13.125l-.025.4c-.069 4.524-3.153 8.398-7.542 10.1 1.586-1.913 3.33-5.038 3.624-8.532.324-3.832-2.289-8.127-7.839-12.885 1.6 3.676.877 7.683-2.17 12.02-.217-1.67-1.18-3.314-2.885-4.931 0 1.486-.533 2.848-1.598 4.085-.81.94-1.8 2.123-1.8 4.42 0 3.03 1.417 4.882 3.203 6.012-4.715-1.605-8.064-5.675-8.064-10.442 0-.1.001-.199.004-.298.105-4.111 2.378-8.749 6.819-13.913 2.12-2.465 3.179-5.037 3.179-7.717z" fill="#575B62" fill-rule="nonzero"/>
</svg>
