<svg width="42" height="43" viewBox="0 0 42 43" xmlns="http://www.w3.org/2000/svg">
    <g transform="translate(8.352 4.736)" fill-rule="nonzero" fill="none">
        <rect fill="#C3C5CA" y="3.935" width="25.463" height="28.935" rx="2.315"/>
        <path d="M12.8 0c.96 0 1.737.784 1.737 1.751l-.003-.07h1.5a3.643 3.643 0 0 1 3.637 3.45l.005.193H5.787A3.643 3.643 0 0 1 9.43 1.681h1.636C11.103.746 11.866 0 12.801 0zM15.925 12.615a1.954 1.954 0 0 1 2.724-.61 2.021 2.021 0 0 1 .631 2.717l-.03.049-5.923 9.42a1.954 1.954 0 0 1-2.955.435l-.043-.04-4.021-3.758a2.025 2.025 0 0 1-.116-2.83 1.95 1.95 0 0 1 2.743-.157l.044.04 2.29 2.14 4.656-7.406z" fill="#575B62"/>
    </g>
</svg>
