<svg width="42" height="43" viewBox="0 0 42 43" xmlns="http://www.w3.org/2000/svg">
    <g transform="translate(12.981 6.056)" fill-rule="nonzero" fill="none">
        <path d="M9.972 0c.963 0 1.745.781 1.745 1.745v2.119a1.745 1.745 0 0 1-3.49 0V1.745C8.226.781 9.006 0 9.971 0zm0 .873a.873.873 0 1 0 0 1.745.873.873 0 0 0 0-1.745z" fill="#575B62"/>
        <path fill="#A5A9B0" d="M0 7.977h16.204v19.569H0z"/>
        <path fill="#575B62" d="M1.746 4.736h12.712l1.746 3.241H0zM1.746 30.787h12.712c-.018-.54.119-1.08.41-1.62.29-.54.736-1.08 1.336-1.62H0c.6.54 1.045 1.08 1.336 1.62.291.54.428 1.08.41 1.62z"/>
        <rect fill="#575B62" x="1.122" y="3.864" width="14.085" height="1.246" rx=".623"/>
    </g>
</svg>
