<svg width="43" height="43" viewBox="0 0 43 43" xmlns="http://www.w3.org/2000/svg" xmlns:xlink="http://www.w3.org/1999/xlink">
    <defs>
        <path d="m4.633 6.574 13.484.51a3.852 3.852 0 0 1 3.704 3.71 3.648 3.648 0 0 1-3.443 3.774l-13.749.767a4.346 4.346 0 0 1-4.588-4.34 4.425 4.425 0 0 1 4.592-4.421z" id="wm43ztsz7a"/>
        <path d="m4.633 6.574 13.484.51a3.852 3.852 0 0 1 3.704 3.71 3.648 3.648 0 0 1-3.443 3.774l-13.749.767a4.346 4.346 0 0 1-4.588-4.34 4.425 4.425 0 0 1 4.592-4.421z" id="qqzrtb3kbc"/>
        <path d="m5.018 7.12 14.603.552a4.171 4.171 0 0 1 4.01 4.018 3.95 3.95 0 0 1-3.727 4.087l-14.89.83a4.707 4.707 0 0 1-4.97-4.7A4.792 4.792 0 0 1 5.018 7.12z" id="a6u7tqvjve"/>
    </defs>
    <g fill="none" fill-rule="evenodd">
        <g transform="rotate(7 -94.147 66.431)">
            <mask id="qjy48e6uzb" fill="#fff">
                <use xlink:href="#wm43ztsz7a"/>
            </mask>
            <use fill="#575B62" fill-rule="nonzero" transform="rotate(-45 10.995 10.995)" xlink:href="#wm43ztsz7a"/>
            <path d="M14.373 2.448a4.823 4.823 0 0 1 3.369 8.275.214.214 0 0 1-.294.004c-.23.43-.527.825-.882 1.171a.214.214 0 0 1-.295.004c-.228.43-.525.825-.88 1.172a.214.214 0 0 1-.294.004c-.23.43-.527.825-.882 1.172a.214.214 0 0 1-.294.004c-.23.43-.527.825-.882 1.171a.214.214 0 0 1-.294.005c-.23.429-.526.824-.881 1.17a.214.214 0 0 1-.294.005c-.23.43-.527.825-.882 1.171a.214.214 0 0 1-.354-.093 4.58 4.58 0 0 1-4.024 2.38 4.595 4.595 0 1 1 4.19-2.705l-.11.112a4.396 4.396 0 0 0-5.205-6.99.214.214 0 0 1-.208-.373 4.823 4.823 0 0 1 6.87 5.886A4.396 4.396 0 0 0 6.36 9.306a.214.214 0 0 1-.209-.373 4.823 4.823 0 0 1 6.869 5.889 4.396 4.396 0 0 0-5.485-6.69.214.214 0 0 1-.208-.375 4.823 4.823 0 0 1 6.869 5.889 4.396 4.396 0 0 0-5.485-6.69.214.214 0 0 1-.209-.374 4.823 4.823 0 0 1 6.868 5.89 4.396 4.396 0 0 0-5.485-6.691.214.214 0 0 1-.207-.375 4.823 4.823 0 0 1 6.869 5.889 4.396 4.396 0 0 0-5.485-6.69.214.214 0 0 1-.209-.375 4.823 4.823 0 0 1 6.87 5.887 4.396 4.396 0 0 0-5.486-6.69.214.214 0 0 1-.208-.372 4.802 4.802 0 0 1 2.343-.606zM6.309 11.3a4.166 4.166 0 0 0-4.168 4.168A4.168 4.168 0 1 0 6.31 11.3z" fill="#EEF1F6" fill-rule="nonzero" mask="url(#qjy48e6uzb)"/>
        </g>
        <path d="M24.725 22.602a4.57 4.57 0 0 0 1.386-3.283 4.592 4.592 0 0 0-4.596-4.588c-.81 0-1.572.21-2.233.577" stroke="#EEF1F6" stroke-width=".5" stroke-linecap="round" stroke-linejoin="round"/>
        <g transform="rotate(7 -32.822 106.367)">
            <mask id="zugeoxtsrd" fill="#fff">
                <use xlink:href="#qqzrtb3kbc"/>
            </mask>
            <use fill="#575B62" fill-rule="nonzero" transform="rotate(-45 10.995 10.995)" xlink:href="#qqzrtb3kbc"/>
            <path d="M14.373 2.448a4.823 4.823 0 0 1 3.369 8.275.214.214 0 0 1-.294.004c-.23.43-.527.825-.882 1.171a.214.214 0 0 1-.295.004c-.228.43-.525.825-.88 1.172a.214.214 0 0 1-.294.004c-.23.43-.527.825-.882 1.172a.214.214 0 0 1-.294.004c-.23.43-.527.825-.882 1.171a.214.214 0 0 1-.294.005c-.23.429-.526.824-.881 1.17a.214.214 0 0 1-.294.005c-.23.43-.527.825-.882 1.171a.214.214 0 0 1-.354-.093 4.58 4.58 0 0 1-4.024 2.38 4.595 4.595 0 1 1 4.19-2.705l-.11.112a4.396 4.396 0 0 0-5.205-6.99.214.214 0 0 1-.208-.373 4.823 4.823 0 0 1 6.87 5.886A4.396 4.396 0 0 0 6.36 9.306a.214.214 0 0 1-.209-.373 4.823 4.823 0 0 1 6.869 5.889 4.396 4.396 0 0 0-5.485-6.69.214.214 0 0 1-.208-.375 4.823 4.823 0 0 1 6.869 5.889 4.396 4.396 0 0 0-5.485-6.69.214.214 0 0 1-.209-.374 4.823 4.823 0 0 1 6.868 5.89 4.396 4.396 0 0 0-5.485-6.691.214.214 0 0 1-.207-.375 4.823 4.823 0 0 1 6.869 5.889 4.396 4.396 0 0 0-5.485-6.69.214.214 0 0 1-.209-.375 4.823 4.823 0 0 1 6.87 5.887 4.396 4.396 0 0 0-5.486-6.69.214.214 0 0 1-.208-.372 4.802 4.802 0 0 1 2.343-.606zM6.309 11.3a4.166 4.166 0 0 0-4.168 4.168A4.168 4.168 0 1 0 6.31 11.3z" fill="#EEF1F6" fill-rule="nonzero" mask="url(#zugeoxtsrd)"/>
        </g>
        <path d="M30.05 15.426a4.57 4.57 0 0 0 1.385-3.283 4.592 4.592 0 0 0-4.596-4.587c-.81 0-1.572.209-2.233.576" stroke="#EEF1F6" stroke-width=".5" stroke-linecap="round" stroke-linejoin="round"/>
        <g>
            <g transform="translate(14.186 12.68)">
                <mask id="oh1vvmixzf" fill="#fff">
                    <use xlink:href="#a6u7tqvjve"/>
                </mask>
                <use fill="#575B62" fill-rule="nonzero" transform="rotate(-45 11.908 11.908)" xlink:href="#a6u7tqvjve"/>
                <path d="M15.566 2.65a5.224 5.224 0 0 1 3.648 8.963.231.231 0 0 1-.318.005 5.22 5.22 0 0 1-.955 1.268.231.231 0 0 1-.319.004 5.18 5.18 0 0 1-.954 1.269.231.231 0 0 1-.32.004 5.18 5.18 0 0 1-.953 1.27.231.231 0 0 1-.32.003 5.18 5.18 0 0 1-.953 1.27.231.231 0 0 1-.32.003 5.18 5.18 0 0 1-.954 1.27.231.231 0 0 1-.318.004c-.249.465-.57.893-.955 1.269a.231.231 0 0 1-.383-.1 4.96 4.96 0 0 1-4.359 2.576 4.977 4.977 0 1 1 4.536-2.926l-.117.118a4.76 4.76 0 0 0-5.637-7.57.231.231 0 1 1-.225-.404 5.224 5.224 0 0 1 7.44 6.374 4.76 4.76 0 0 0-5.941-7.243.231.231 0 1 1-.226-.404 5.224 5.224 0 0 1 7.441 6.37 4.76 4.76 0 0 0-5.943-7.24.231.231 0 0 1-.225-.403 5.224 5.224 0 0 1 7.44 6.374 4.76 4.76 0 0 0-5.942-7.242.231.231 0 0 1-.225-.405 5.224 5.224 0 0 1 7.441 6.37 4.76 4.76 0 0 0-5.943-7.24.231.231 0 1 1-.225-.403 5.224 5.224 0 0 1 7.441 6.37 4.76 4.76 0 0 0-5.943-7.24.231.231 0 1 1-.225-.403 5.224 5.224 0 0 1 7.44 6.372 4.76 4.76 0 0 0-5.942-7.241.231.231 0 1 1-.225-.405 5.2 5.2 0 0 1 2.538-.656zm-8.733 9.587a4.512 4.512 0 0 0-4.514 4.514 4.514 4.514 0 1 0 4.514-4.514z" fill="#EEF1F6" fill-rule="nonzero" mask="url(#oh1vvmixzf)"/>
            </g>
        </g>
    </g>
</svg>
