<svg width="43" height="43" viewBox="0 0 43 43" xmlns="http://www.w3.org/2000/svg">
    <g fill-rule="nonzero" fill="none">
        <path d="m27.036 24.285 2.895 1.094V35.87l-8.681 3.282-8.68-3.282V25.38l2.892-1.094v1.18l-1.388.527v.03l7.176 2.713 7.175-2.713v-.03l-1.389-.526v-1.181z" fill="#575B62"/>
        <path d="M25.07 4.1c.501 0 .91.4.925.898v3.377l.68-.289a.926.926 0 0 1 1.202.464l.012.027a.926.926 0 0 1-.463 1.202l-.027.012-5.223 2.216v6.438l1.967-.835v-4.47l1.852-.785v4.469l.68-.288a.926.926 0 0 1 1.202.463l.012.027a.926.926 0 0 1-.463 1.202l-.027.012-5.223 2.216v5.924a.926.926 0 0 1-1.851.028l-.001-6.001-5.107-2.167a.926.926 0 0 1 .696-1.716l.027.012.565.24v-4.471l1.85.785v4.47l1.969.836v-6.438L15.217 9.79a.926.926 0 0 1 .696-1.716l.027.011.565.24v-3.3a.926.926 0 0 1 1.851-.028V9.11l1.968.835V6.819a.926.926 0 0 1 1.851-.028v3.205l1.968-.835V5.026c0-.51.415-.925.926-.925zm-8.565 16.654 1.85.785.001 3.048a.926.926 0 0 1-1.85.029l-.001-3.862zm9.49.05v3.783a.926.926 0 0 1-1.851.029v-.03l-.001-2.997 1.852-.785z" fill="#A5A9B0"/>
    </g>
</svg>
