<svg width="42" height="43" viewBox="0 0 42 43" xmlns="http://www.w3.org/2000/svg">
    <g fill-rule="nonzero" fill="none">
        <path fill="#A5A9B0" d="m33.768 33.057-21.44-5.366 2.86-21.549 18.304 4.463.276 6.57.856 2.124.287 5.625-.287 5.166z"/>
        <path fill="#575B62" d="m33.84 33.057 1.334-.87.979-5.436-.98-4.961.7-2.33-1.182-2.33V9.85l-17.265-4.5-2.161.738 17.896 4.759.296 6.692.836 1.92-.454 2.331.852 4.592z"/>
        <path fill="#A5A9B0" d="m30.136 35.14-18.849-4.609 1.427-22.007.688-.322 16.206 4.49.198 4.039 1.024 2.408.31 4.365-.537 2.7.537 2.89-.31 4.578z"/>
        <path fill="#575B62" d="m30.154 35.14 1.38-.622.508-3.517-.509-4.265.51-3.319-.324-5.56-1.282-1.506.364-4.211-16.299-4.276-1.748.664 16.37 4.52-.404 3.969 1.434 1.868.283 4.532-.492 3.768.668 4.386z"/>
        <g>
            <path fill="#575B62" d="m26.778 37.758 1.547-.6-1.308-2.617 1.308-8.497-1.743-2.15.435-4.64-1.82-4.933L9.508 10.57l-1.31.556z"/>
            <path fill="#A5A9B0" d="M8.271 11.134 6.908 15.09l1.063 1.604-1.808 4.909.745 10.85 19.947 5.305-1.502-3.05 1.145-8.004-1.58-2.02.435-4.4-1.371-5.004z"/>
        </g>
    </g>
</svg>
