<svg width="43" height="43" viewBox="0 0 43 43" xmlns="http://www.w3.org/2000/svg">
    <g fill-rule="nonzero" fill="none">
        <path d="M7.093 16.87v21.005h2.314V20.508l-.137-.315-2.177-3.323zM36.258 16.87l.001 21.005h-2.315V20.508l.137-.315 2.177-3.323zM10.334 20.63h22.569v17.244h-22.57z" fill="#C3C5CA"/>
        <path d="M13.69 5.746V3.732H1.653v1.984l12.037.03zm14.12.034V3.732H15.773V5.75l12.037.029zm14.12.035V3.73H29.894v2.054l12.038.03z" fill="#A5A9B0"/>
        <path d="M14.731 9.796 13.706 5.7H1.653l2.564 4.097h10.514zm12.31 0 .77-4.097H15.772l.768 4.097h10.5zm-11.036 4.78-1.031-4.097H4.662l2.578 4.097h8.765zm10.222 0L27 10.48H16.7l.772 4.097h8.755zm10.117 0 2.577-4.097H28.61l-1.031 4.097h8.765zm-19.182 4.78-1.026-4.097H7.671l2.565 4.097h6.926zm8.144 0 .768-4.097h-8.449l.768 4.097h6.913zm8.041 0 2.565-4.097h-8.465l-1.026 4.097h6.926zM39.366 9.75l2.565-4.05H29.878l-1.026 4.05z" fill="#575B62"/>
    </g>
</svg>
