<svg width="42" height="42" viewBox="0 0 42 42" xmlns="http://www.w3.org/2000/svg">
    <g fill-rule="nonzero" fill="none">
        <path d="M31.018 25.15a7.92 7.92 0 1 1-13.719-7.92l-.035.062a4.77 4.77 0 0 1 2.946 1.232l-.167.29a4.752 4.752 0 1 0 8.23 4.753l3.803-6.585a4.752 4.752 0 1 0-8.231-4.752l-1.327 2.297a9.289 9.289 0 0 0-2.843-1.412l1.426-2.47a7.92 7.92 0 1 1 13.718 7.92z" fill="#575B62"/>
        <path d="M20.417 31.98a7.92 7.92 0 0 1-13.719-7.92l3.802-6.585a7.92 7.92 0 1 1 13.718 7.92l.02-.035a4.774 4.774 0 0 1-2.97-1.192l.207-.357a4.752 4.752 0 1 0-8.231-4.752l-3.802 6.585a4.752 4.752 0 0 0 8.23 4.752l1.355-2.347a9.294 9.294 0 0 0 2.856 1.393z" fill="#A5A9B0"/>
    </g>
</svg>
