<svg width="43" height="43" viewBox="0 0 43 43" xmlns="http://www.w3.org/2000/svg">
    <g fill="none" fill-rule="evenodd">
        <path stroke="#575B62" stroke-width="1.736" stroke-linecap="round" stroke-linejoin="round" d="m5.704 24.046 16.088-9.838 16.088 9.838"/>
        <path stroke="#A5A9B0" stroke-width="1.736" fill="#DCDFE4" fill-rule="nonzero" stroke-linecap="round" stroke-linejoin="round" d="M32.556 21.037v15.278H11.028V21.037"/>
        <path fill="#DCDFE4" fill-rule="nonzero" d="m11.896 20.786 9.836-6.63 9.955 6.63v3.26l-19.739-.115z"/>
        <path stroke="#575B62" stroke-width="1.736" stroke-linecap="round" stroke-linejoin="round" d="m5.704 24.046 16.088-9.838 16.088 9.838"/>
        <path d="m4.2 22.142 17.894-10.943 17.29 10.573" stroke="#4B4F57" stroke-width="1.157" stroke-linecap="round" stroke-linejoin="round" stroke-dasharray="0.9259259259259256,2.430555555555554"/>
        <path d="M11.067 4.248a.231.231 0 0 1 .189.19l.316 1.843c.356.071.69.204.99.387l1.447-1.229a.231.231 0 0 1 .35.294l-.975 1.665c.207.263.371.56.483.883l1.956-.011a.231.231 0 0 1 .08.45l-1.868.668c-.01.33-.072.646-.179.94l1.538 1.276a.231.231 0 0 1-.228.396l-1.882-.697c-.207.238-.45.443-.721.608l.358 1.972a.231.231 0 0 1-.428.156l-.986-1.73a3.086 3.086 0 0 1-.968.017l-.976 1.713a.231.231 0 0 1-.429-.156l.349-1.91a3.08 3.08 0 0 1-.8-.639L6.89 12a.231.231 0 0 1-.228-.396l1.449-1.202a3.06 3.06 0 0 1-.208-1.113l.001.056-1.751-.626a.231.231 0 0 1 .08-.45l1.84.012c.123-.356.311-.683.55-.965l-.926-1.583a.231.231 0 0 1 .35-.294l1.4 1.188a3.047 3.047 0 0 1 1.042-.367l.31-1.823a.231.231 0 0 1 .268-.189z" fill="#4B4F57" fill-rule="nonzero"/>
        <g fill-rule="nonzero">
            <path d="M25.264 27.981a.347.347 0 0 1 0 .695h-1.736a.347.347 0 0 1 0-.695h1.736zm-.81-1.504a.347.347 0 0 1 0 .694h-.926a.347.347 0 0 1 0-.694h.926zm.81-1.389a.347.347 0 1 1 0 .694h-1.736a.347.347 0 1 1 0-.694h1.736zm-.81-1.505a.347.347 0 0 1 0 .695h-.926a.347.347 0 1 1 0-.695h.926zm.81-1.389a.347.347 0 1 1 0 .695h-1.736a.347.347 0 1 1 0-.695h1.736z" fill="#575B62"/>
            <path d="M20.113 19.532c.8 0 1.447.648 1.447 1.447l.001 7.11a3.009 3.009 0 1 1-2.895.064v-7.174c0-.799.648-1.447 1.447-1.447z" fill="#A5A9B0"/>
            <path d="M20.113 21.847c.352 0 .637.285.637.637v6.394a1.968 1.968 0 1 1-1.273.04v-6.434c0-.352.285-.637.636-.637z" fill="#575B62"/>
            <path d="M20.171 29.602c-.703 0-1.273.57-1.273 1.273" stroke="#A5A9B0" stroke-width=".5" stroke-linecap="round" stroke-linejoin="round"/>
        </g>
    </g>
</svg>
