<svg width="43" height="42" viewBox="0 0 43 42" xmlns="http://www.w3.org/2000/svg">
    <g fill-rule="nonzero" fill="none">
        <path d="M13.69 27.82v2.365H1.653V27.87l12.037-.05zm14.12-.06v2.425H15.773V27.81l12.037-.05z" fill="#A5A9B0"/>
        <path d="m14.731 23.044-1.025 4.826H1.653l2.564-4.826h10.514zm12.31 0 .77 4.826H15.772l.768-4.826h10.5zm-11.036-5.63-1.031 4.826H4.662l2.578-4.827h8.765zm10.222 0L27 22.24H16.7l.772-4.827h8.755zm10.117 0 2.577 4.826H28.61l-1.031-4.827h8.765zm-19.182-5.632-1.026 4.827H7.671l2.565-4.827h6.926zm8.144 0 .768 4.827h-8.449l.768-4.827h6.913zm8.041 0 2.565 4.827h-8.465l-1.026-4.827h6.926z" fill="#575B62"/>
    </g>
</svg>
