<svg width="43" height="43" viewBox="0 0 43 43" xmlns="http://www.w3.org/2000/svg">
    <g fill-rule="nonzero" fill="none">
        <path d="M31.55 37.474c.541 0 1.078-.005 1.611-.016a9.545 9.545 0 0 1-5.525 2.002 196.35 196.35 0 0 1-14.16 0 9.585 9.585 0 0 1-9.236-9.308l-.003-.193c2.832 4.303 13.986 7.515 27.314 7.515z" fill="#A5A9B0"/>
        <path d="M11.042 4.148a4.723 4.723 0 0 1 4.711 4.404l.01-.004c.182 2.077.79 3.89 1.827 5.44-1.302-.4-2.574-.292-3.763.362l-.059.033c-1.308.741-2.082 2.144-2.5 4.008-.268 1.194-.37 2.454-.377 3.84v.297c-.002 1.127.031 1.827.183 2.752.22 1.33.647 2.597 1.345 3.794.993 1.701 2.482 3.166 4.529 4.337l.12.068c.9.503 1.891.923 2.972 1.26-1.963-.222-3.94-.588-5.819-1.134-9.6-2.792-8.293-10.937-7.468-13.656l.025-.08c.523-1.674.943-5.46.902-6.847-.041-1.389-.343-2.45-1.188-2.883-.495-.255-1.172-.523-1.876-.827 0-.611.6-1.073 1.798-1.387a4.724 4.724 0 0 1 4.628-3.777zm7.925 11.927c2.362 1.517 4.432 3.006 6.21 4.467l.402.37a361.485 361.485 0 0 1 4.357 4.098l.283.293a182.676 182.676 0 0 1 4.608 4.996l.303.41.238.323c.258.354.5.69.723 1.005.054.238.082.473.082.706 0 .49-1.045 1.01-2.766 1.426-6.978.82-12.257.206-15.838-1.843-5.239-2.996-5.425-7.487-5.429-9.571l.001-.543.003-.24c.03-1.98.316-5.41 2.24-6.501 1.378-.781 2.906-.58 4.583.604zM9.524 6.64c-.54 0-.949.145-.949.487 0 .341.293.468.556.468.263 0 .474-.357.85-.423.375-.066 1.07.285.988.145-.081-.14-.903-.677-1.445-.677z" fill="#575B62"/>
        <path d="M12.14 22.386c0 1.874-.144 6.752 5.429 9.94 3.715 2.126 9.257 2.707 16.626 1.746 2.27 1.49 3.588 2.103 3.956 1.839.369-.264-.74-2.135-3.324-5.612-3.542-3.968-6.332-6.857-8.372-8.666-2.04-1.809-4.536-3.662-7.488-5.558-1.677-1.184-3.205-1.385-4.583-.604-2.067 1.17-2.243 5.04-2.243 6.915z" fill="#A5A9B0"/>
    </g>
</svg>
