<svg width="43" height="43" viewBox="0 0 43 43" xmlns="http://www.w3.org/2000/svg">
    <g fill-rule="nonzero" fill="none">
        <path fill="#A5A9B0" d="m23.383 25.825 2.713 6.462 3.147-1.102-2.575-6.906z"/>
        <path d="M6.375 18.148 9.09 25.53a3.791 3.791 0 0 0 4.991 2.201l20.119-8.21a3.791 3.791 0 0 0 2.133-4.797l-2.49-6.898-27.468 10.32zM6.541 22.406l-2.752.055a.292.292 0 0 0-.268.393l2.723 7.391a.292.292 0 0 0 .463.122l2.432-2.065a.875.875 0 0 0 .227-1.034l-2.013-4.354a.875.875 0 0 0-.812-.508z" fill="#575B62"/>
        <path d="M20.39 24.926a2.533 2.533 0 0 0 3.232 1.465l2.502-.914a2.925 2.925 0 0 0 1.704-3.858l-7.437 3.307z" fill="#7C818A"/>
        <path fill="#A5A9B0" d="M29.186 30.86h8.78l.377 3.214h-8.89z"/>
        <path d="M4.236 18.326 34.082 7.324l.677 2.033a3.937 3.937 0 0 1-2.338 4.924l-19.836 7.532a6.576 6.576 0 0 1-8.349-3.487zM39.954 27.9v8.475a2.187 2.187 0 0 1-2.188-2.187v-4.1c0-1.208.98-2.187 2.188-2.187zM25.126 30.513l3.507-1.426a.292.292 0 0 1 .33.078c.461.527.912.857 1.35.989.431.13 1.099.143 2.003.04a.292.292 0 0 1 .325.29v3.73a.292.292 0 0 1-.27.291c-2.266.178-4.02-.085-5.26-.787-1.213-.687-1.934-1.647-2.162-2.882a.292.292 0 0 1 .177-.323zM7.587 23.846l1.195 2.717a1.464 1.464 0 0 0 1.844.785l-2.4-4.75a.904.904 0 0 0-.639 1.248z" fill="#7C818A"/>
    </g>
</svg>
