<svg width="43" height="43" viewBox="0 0 43 43" xmlns="http://www.w3.org/2000/svg" xmlns:xlink="http://www.w3.org/1999/xlink">
    <defs>
        <path id="4u1djyt5ma" d="M0 0h23.148v39.468H0z"/>
        <path id="z7hogdgmnd" d="M3.046 2.993h17.057v20.064H3.046z"/>
        <linearGradient x1="50%" y1="0%" x2="50%" y2="37.282%" id="acb8bbvf3c">
            <stop stop-color="#D1DAE6" offset="0%"/>
            <stop stop-color="#DAE0E8" offset="100%"/>
        </linearGradient>
    </defs>
    <g fill="none" fill-rule="evenodd">
        <g transform="translate(9.8 .422)">
            <mask id="2fzhsu2gwb" fill="#fff">
                <use xlink:href="#4u1djyt5ma"/>
            </mask>
            <path d="M14.01-78.877V56.1h-.488l.001-2.364-1.723 1.77.578.594h-.453l-.35-.361-.354.361h-.436l.58-.594-1.723-1.77V56.1h-.505V-73.814l4.874-5.063zm-2.436 130.61-1.723 1.77 1.723 1.77 1.723-1.77-1.723-1.77zm-1.932-2.002v3.54l1.723-1.77-1.723-1.77zm3.881 0L11.8 51.5l1.723 1.77v-3.54zm-.226-.233H9.851l1.723 1.77 1.723-1.77zm.226-.769H9.625v.501h3.898v-.5zm-1.949-2.203-1.723 1.77h3.446l-1.723-1.77zm1.95-2.003-1.724 1.77 1.723 1.77v-3.54zm-3.882 0v3.54l1.723-1.77-1.723-1.77zm1.932-2.002-1.723 1.77 1.723 1.77 1.723-1.77-1.723-1.77zm1.95-2.002-1.724 1.77 1.723 1.77v-3.54zm-3.882 0v3.54l1.723-1.77-1.723-1.77zm3.655-.233H9.851l1.723 1.77 1.723-1.77zm.226-.769H9.625v.501h3.898v-.5zm-1.949-2.203-1.723 1.77h3.446l-1.723-1.77zM9.642 35.31v3.54l1.723-1.77-1.723-1.77zm3.881 0-1.723 1.77 1.723 1.77v-3.54zm-1.949-2.002-1.723 1.77 1.723 1.77 1.723-1.77-1.723-1.77zm1.95-2.002-1.724 1.77 1.723 1.77v-3.54zm-3.882 0v3.54l1.723-1.77-1.723-1.77zm3.655-.233H9.851l1.723 1.77 1.723-1.77zm.226-.769H9.625v.501h3.898v-.5zm-1.949-2.203-1.723 1.77h3.446l-1.723-1.77zm1.95-2.003L11.8 27.87l1.723 1.77v-3.54zm-3.882 0v3.54l1.723-1.77-1.723-1.77zm1.932-2.002-1.723 1.77 1.723 1.77 1.723-1.77-1.723-1.77zm-1.932-2.002v3.54l1.723-1.77-1.723-1.77zm3.881 0-1.723 1.77 1.723 1.77v-3.54zm-.226-.233H9.851l1.723 1.77 1.723-1.77zm.226-.769H9.625v.501h3.898v-.5zm-1.949-2.203-1.723 1.77h3.446l-1.723-1.77zm-1.932-2.003v3.54l1.723-1.77-1.723-1.77zm3.881 0-1.723 1.77 1.723 1.77v-3.54zm-1.949-2.002-1.723 1.77 1.723 1.77 1.723-1.77-1.723-1.77zm-1.932-2.002v3.54l1.723-1.77-1.723-1.77zm3.881 0-1.723 1.77 1.723 1.77v-3.54zm-.226-.233H9.851l1.723 1.77 1.723-1.77zm.226-.769H9.625v.501h3.898v-.5zm-1.949-2.203-1.723 1.77h3.446l-1.723-1.77zm1.95-2.003L11.8 9.445l1.723 1.77v-3.54zm-3.882 0v3.54l1.723-1.77-1.723-1.77zm1.932-2.002-1.723 1.77 1.723 1.77 1.723-1.77-1.723-1.77zm1.95-2.002L11.8 5.44l1.723 1.77V3.67zm-3.882 0v3.54l1.723-1.77-1.723-1.77zm3.655-.233H9.851l1.723 1.77 1.723-1.77zm.226-.769H9.625v.501h3.898v-.5zM11.574.466l-1.723 1.77h3.446L11.574.465zm1.95-2.003L11.8.233l1.723 1.77v-3.54zm-3.882 0v3.54l1.723-1.77-1.723-1.77zm1.932-2.002L9.851-1.77 11.574 0l1.723-1.77-1.723-1.77zm1.95-2.002L11.8-3.771l1.723 1.77v-3.54zm-3.882 0v3.54l1.723-1.77-1.723-1.77zm3.655-.233H9.851l1.723 1.77 1.723-1.77zm.226-.769H9.625v.501h3.898v-.5zM11.574-8.39 9.851-6.62h3.446l-1.723-1.77zm-1.932-2.002v3.54l1.723-1.77-1.723-1.77zm3.881 0L11.8-8.622l1.723 1.77v-3.54zm-1.949-2.003-1.723 1.77 1.723 1.77 1.723-1.77-1.723-1.77zm-1.932-2.002v3.54l1.723-1.77-1.723-1.77zm3.881 0-1.723 1.77 1.723 1.77v-3.54zm-.226-.233H9.851l1.723 1.77 1.723-1.77zm.226-.768H9.625v.5h3.898v-.5zM11.574-17.4l-1.723 1.77h3.446l-1.723-1.77zm1.95-2.003-1.724 1.77 1.723 1.77v-3.54zm-3.882 0v3.54l1.723-1.77-1.723-1.77zm1.932-2.002-1.723 1.77 1.723 1.77 1.723-1.77-1.723-1.77zm1.95-2.002-1.724 1.77 1.723 1.77v-3.54zm-3.882 0v3.54l1.723-1.77-1.723-1.77zm3.655-.233H9.851l1.723 1.77 1.723-1.77zm.226-.769H9.625v.501h3.898v-.5zm-1.949-2.002-1.723 1.77h3.446l-1.723-1.77zm1.95-2.002-1.724 1.77 1.723 1.77v-3.54zm-3.882 0v3.54l1.723-1.77-1.723-1.77zm1.932-2.002-1.723 1.77 1.723 1.77 1.723-1.77-1.723-1.77zm1.95-2.003-1.724 1.77 1.723 1.77v-3.54zm-3.882 0v3.54l1.723-1.77-1.723-1.77zm3.655-.232H9.851l1.723 1.77 1.723-1.77zm.226-.769H9.625v.5h3.898v-.5zm-1.949-2.002-1.723 1.77h3.446l-1.723-1.77zm1.95-2.003-1.724 1.77 1.723 1.77v-3.54zm-3.882 0v3.54l1.723-1.77-1.723-1.77zm1.932-2.002-1.723 1.77 1.723 1.77 1.723-1.77-1.723-1.77zm1.95-2.002-1.724 1.77 1.723 1.77v-3.54zm-3.882 0v3.54l1.723-1.77-1.723-1.77zm3.655-.233H9.851l1.723 1.77 1.723-1.77zm.226-.768H9.625v.5h3.898v-.5zm-1.949-2.003-1.723 1.77h3.446l-1.723-1.77zm1.95-2.002-1.724 1.77 1.723 1.77v-3.54zm-3.882 0v3.54l1.723-1.77-1.723-1.77zm1.932-2.002-1.723 1.77 1.723 1.77 1.723-1.77-1.723-1.77zm1.95-2.003-1.724 1.77 1.723 1.77v-3.54zm-3.882 0v3.54l1.723-1.77-1.723-1.77zm3.655-.232H9.851l1.723 1.77 1.723-1.77zm.226-.769H9.625v.5h3.898v-.5zm-1.949-2.002-1.723 1.77h3.446l-1.723-1.77zm1.95-2.002-1.724 1.77 1.723 1.77v-3.54zm-3.882 0v3.54l1.723-1.77-1.723-1.77zm1.932-2.003-1.723 1.77 1.723 1.77 1.723-1.77-1.723-1.77zm1.95-2.002-1.724 1.77 1.723 1.77v-3.54zm-3.882 0v3.54l1.723-1.77-1.723-1.77zm3.655-.232H9.851l1.723 1.77 1.723-1.77zm.226-.77H9.625v.501h3.898v-.5zm-1.949-2.001-1.723 1.77h3.446l-1.723-1.77zm1.95-2.003-1.724 1.77 1.723 1.77v-3.54zm-3.882 0v3.54l1.723-1.77-1.723-1.77zm1.932-2.002-1.723 1.77 1.723 1.77 1.723-1.77-1.723-1.77zm1.95-2.002L11.8-66.69l1.723 1.77v-3.54zm-3.882 0v3.54l1.723-1.77-1.723-1.77zm3.655-.233H9.851l1.723 1.77 1.723-1.77zm.226-.769H9.625v.501h3.898v-.5zm-1.949-2.002-1.723 1.77h3.446l-1.723-1.77zm1.95-2.002-1.724 1.77 1.723 1.77v-3.54zm-3.882 0v3.54l1.723-1.77-1.723-1.77zm1.932-2.002-1.723 1.77 1.723 1.77 1.723-1.77-1.723-1.77zm1.95-2.003L11.8-75.7l1.723 1.77v-3.54z" fill="#575B62" fill-rule="nonzero" mask="url(#2fzhsu2gwb)"/>
        </g>
        <g fill-rule="nonzero">
            <g opacity=".9" transform="translate(9.8 6.394)">
                <use fill="url(#acb8bbvf3c)" xlink:href="#z7hogdgmnd"/>
                <use fill="#EEF1F6" xlink:href="#z7hogdgmnd"/>
            </g>
            <path fill="#575B62" d="m10.41 31.882 3.046-2.521h15.838l3.046 2.521zM22.853 17.97c.523 0 .947.425.947.948v3.071a.947.947 0 0 1-.947.947V27.9a.947.947 0 0 1-.947.947h-.947a.947.947 0 0 1-.947-.947v-4.964a.947.947 0 0 1-.947-.947v-3.071c0-.523.424-.947.947-.947h2.841zm-1.065-5.674c.182 0 .339.109.409.265l-.002.582h.16v-.406l.035.015a2.368 2.368 0 0 1 1.41 2.145h.106c.072 0 .131.059.131.132v.446a.132.132 0 0 1-.131.131h-.58a1.893 1.893 0 0 1-1.893 1.892 1.893 1.893 0 0 1-1.894-1.892h-.579a.132.132 0 0 1-.131-.131v-.446c0-.073.059-.132.131-.132h.106l.007-.164a2.37 2.37 0 0 1 1.477-2.012v.422h.16l-.001-.581a.447.447 0 0 1 .408-.266h.671z"/>
            <path fill="#575B62" d="M13.505 10.08v19.382l-3.087 2.527V7.01zM29.245 10.056v19.406l3.087 2.527V7.01z"/>
            <path fill="#575B62" d="m10.418 7.01 2.844 3.084h16.026l3.044-3.084z"/>
            <path stroke="#A5A9B0" stroke-width=".609" opacity=".6" d="M13.809 10.245h15.286v18.819H13.809z"/>
            <path stroke="#A5A9B0" stroke-width=".609" d="M10.106 6.699h22.539v25.449h-22.54z"/>
        </g>
    </g>
</svg>
