<svg width="43" height="42" viewBox="0 0 43 42" xmlns="http://www.w3.org/2000/svg">
    <g fill="none" fill-rule="evenodd">
        <path d="M27.43 3.324c4.353 0 1.473 4.209 2.859 5.418l.091.082c.111-1.732.702-3.088 1.773-4.067 2.222-2.03 6.412-.965 6.412 2.545 0 2.51-1.381 2.625-2.785 2.532l-.272-.02-.27-.022-.266-.02c-.735-.05-1.401-.038-1.783.381 1.701.12 3.033.712 3.997 1.777 2.021 2.232.96 6.44-2.533 6.44-2.66 0-2.619-1.571-2.501-3.07l.022-.271c.067-.854.108-1.65-.38-2.076l-.09-.083c-.112 1.733-.703 3.088-1.774 4.067-2.222 2.03-6.411.966-6.411-2.544 0-2.51 1.38-2.626 2.784-2.532l.272.02.27.022c.839.067 1.622.107 2.05-.362-1.702-.12-3.033-.712-3.997-1.776-2.022-2.232-.962-6.44 2.533-6.44zm3.584 6.672a.842.842 0 0 0-.84.844c0 .466.376.844.84.844.465 0 .84-.378.84-.844a.842.842 0 0 0-.84-.844z" fill="#575B62" fill-rule="nonzero"/>
        <g fill-rule="nonzero" stroke="#575B62" stroke-width="1.157">
            <path d="m12.332 3.324.035 14.94M10.26 3.647l2.06 2.075M14.38 3.647l-2.06 2.075M10.26 17.91l2.06-2.075M14.38 17.91l-2.06-2.075M19.807 10.789l-14.94.034M19.484 8.717l-2.075 2.06M19.484 12.835l-2.075-2.059M5.22 8.717l2.075 2.06M5.22 12.835l2.075-2.059M17.668 5.508 7.128 16.096M15.978 4.276l-.015 2.919M18.882 7.18l-2.919.016M5.893 14.362l2.919-.016M8.796 17.265l.016-2.919M17.675 16.072 7.087 5.532M18.906 14.383l-2.919-.016M16.003 17.287l-.015-2.919M8.82 4.297l.016 2.92M5.918 7.2l2.919.016"/>
        </g>
        <path d="M10.943 21.148c1.246.803 2.952 2.332 5.12 4.589 2.081 2.166 3.074 4.48 2.98 6.945l-.018.309c-.037 2.426-1.69 4.503-4.043 5.416.85-1.026 1.784-2.702 1.942-4.576.174-2.055-1.228-4.358-4.204-6.91.858 1.972.47 4.12-1.164 6.447-.117-.896-.633-1.778-1.548-2.645 0 .797-.285 1.528-.857 2.191-.434.504-.965 1.138-.965 2.37 0 1.624.759 2.617 1.716 3.224-2.529-.862-4.323-3.044-4.323-5.6 0-.073.001-.146.004-.218.076-2.19 1.295-4.658 3.655-7.403 1.137-1.322 1.705-2.702 1.705-4.139z" fill="#575B62" fill-rule="nonzero"/>
        <g fill-rule="nonzero" stroke="#575B62" stroke-width="1.157">
            <path d="M35.533 26.56c-.435.191-.87.29-1.308.29-.438 0-.874-.099-1.308-.29zm-7.674-1.447a3.1 3.1 0 0 1 .98.163l-2.14.065c.386-.15.772-.228 1.16-.228zM35.533 30.38c-.435.19-.87.289-1.308.289-.438 0-.874-.098-1.308-.29zm-7.674-1.447a3.1 3.1 0 0 1 .98.163l-2.14.065c.386-.151.772-.228 1.16-.228zM35.533 34.199c-.435.191-.87.29-1.308.29-.438 0-.874-.099-1.308-.29zm-7.674-1.447a3.1 3.1 0 0 1 .98.163l-2.14.065c.386-.15.772-.228 1.16-.228z"/>
        </g>
    </g>
</svg>
