<svg width="42" height="43" viewBox="0 0 42 43" xmlns="http://www.w3.org/2000/svg">
    <g fill-rule="nonzero" fill="none">
        <path d="M20.91 5.94a2.04 2.04 0 0 1 1.903 1.307l4.652-.283a1.75 1.75 0 0 1 .053-.003h.053a1.75 1.75 0 0 1 .038 3.5l-.144-.003-5.026-.308.001 4.413a3.711 3.711 0 0 1 1.554 1.328h.74a.51.51 0 0 1 .51.51v1.278a.51.51 0 0 1-.51.51l-.129-.001.002 1.939c.541.313.99.694 1.317 1.123h5.436v-.128a.51.51 0 0 1 .51-.51h1.657a.51.51 0 0 1 .51.51v4.595a.51.51 0 0 1-.51.51H31.87a.51.51 0 0 1-.51-.51h-6.797c-.982.556-2.258.892-3.653.892s-2.67-.336-3.652-.892l-2.206-.001a1.976 1.976 0 0 0-1.975 1.937v1.918h-4.46v-1.877a6.44 6.44 0 0 1 6.329-6.443h.106l.845-.001c.326-.429.776-.81 1.317-1.123v-1.94l-.127.001a.51.51 0 0 1-.51-.51v-1.277a.51.51 0 0 1 .51-.51h.74a3.71 3.71 0 0 1 1.681-1.383v-4.373l-5.28.323a1.75 1.75 0 1 1 0-3.494l4.777.29A2.04 2.04 0 0 1 20.91 5.94z" fill="#575B62"/>
        <path d="m10.779 31.84 1.893 3.17a2.206 2.206 0 1 1-3.787 0l1.894-3.17z" fill="#A5A9B0"/>
    </g>
</svg>
