<svg width="43" height="43" viewBox="0 0 43 43" xmlns="http://www.w3.org/2000/svg">
    <g fill-rule="nonzero" fill="none">
        <path d="m26.946 4.721 3.843 18.783a1.354 1.354 0 0 1-1.677 1.58L12.55 20.644a1.354 1.354 0 0 1-.663-2.206l12.72-14.345a1.354 1.354 0 0 1 2.34.627z" fill="#A5A9B0"/>
        <path fill="#575B62" d="m21.048 18.145-1.321 4.93-3.505 1.49-.985 3.677 1.962.526.729-2.722 3.505-1.49 1.577-5.886z"/>
        <path d="m14.297 27.9 3.83 1.025a.677.677 0 0 1 .479.83l-2.021 7.542a2.66 2.66 0 1 1-5.138-1.377l2.021-7.542a.677.677 0 0 1 .83-.479z" fill="#575B62"/>
    </g>
</svg>
