<svg width="43" height="43" viewBox="0 0 43 43" xmlns="http://www.w3.org/2000/svg" xmlns:xlink="http://www.w3.org/1999/xlink">
    <defs>
        <path d="M1.065 0s-3.75 5.687 2.821 11.162c4.38 3.65 7.03 2.391 7.95-3.775-2.663-2.131-4.42-3.48-5.269-4.045C3.503 1.304 1.065 0 1.065 0z" id="ikh0yix5aa"/>
    </defs>
    <g fill="none" fill-rule="evenodd">
        <g transform="translate(23.492 23.733)" fill-rule="nonzero">
            <path d="M4.37 0 3.8 5.55a2.083 2.083 0 0 0 2.202 2.292l.676-.042v2.393l-1.782.214A3.704 3.704 0 0 1 .779 7.18L0 .83 4.37 0z" fill="#A5A9B0"/>
            <ellipse fill="#7C818A" cx="11.135" cy="8.475" rx="2.373" ry="3.125"/>
            <path d="m6.678 7.8 3.573-.292a.901.901 0 0 1 .975.898c0 .566-.406 1.05-.963 1.15l-3.585.637V7.8z" fill="#A5A9B0"/>
            <path d="m.735 6.95 3.221-.68a.463.463 0 0 1 .533.3c.14.403.294.66.46.772.128.086.316.12.563.104a.463.463 0 0 1 .49.522l-.337 2.54s-2.129.932-3.674 0C1.047 9.937.507 8.917.37 7.446a.463.463 0 0 1 .365-.496z" fill="#7C818A"/>
        </g>
        <path d="M22.49 21.79c-.973 3.444-1.7 5.237-2.182 5.378-.723.212 7.098-1.302 9.63-1.991 2.532-.689 3.719-1.472 4.883-2.43.776-.638 1.472-1.461 2.087-2.469-2.784.93-5.246 1.67-7.383 2.22-2.138.55-4.483.313-7.036-.709zM10.363 13.62c-2.92-.42-4.592-.056-5.019 1.094-.64 1.726.401 4.362 4.77 6.685-.235-.675-.982-2.315-.9-4.448.056-1.422.438-2.532 1.149-3.33z" fill="#575B62" fill-rule="nonzero"/>
        <path d="m7.705 12.482 20.88-5.389c2.823-.038 5.158 1.16 7.004 3.593 1.847 2.434 2.474 5.252 1.88 8.456-5.104 1.855-8.76 2.782-10.968 2.782-3.313 0-5.735-2.586-8.25-4.499-2.514-1.913-5.216-3.462-6.805-4.013-1.059-.368-2.306-.678-3.741-.93z" fill="#575B62" fill-rule="nonzero"/>
        <g transform="translate(9.835 13.974)">
            <mask id="342wn3ckab" fill="#fff">
                <use xlink:href="#ikh0yix5aa"/>
            </mask>
            <use fill="#A5A9B0" fill-rule="nonzero" xlink:href="#ikh0yix5aa"/>
            <path d="M5.032 2.295c1.17-.02 1.542.216 1.92.468.265.176.616.426 1.053.751l.396.297c.557.42 1.227.94 2.01 1.555.066 1.537-.36 2.265-.93 2.781a3.163 3.163 0 0 1-2.133.844c-.954 0-1.823-.44-2.45-1.169-.592-.688-.964-1.637-.964-2.69 0-1.13.429-2.14 1.098-2.837z" stroke="#7C818A" stroke-width="1.392" fill="#575B62" fill-rule="nonzero" stroke-linecap="round" stroke-linejoin="round" mask="url(#342wn3ckab)"/>
        </g>
    </g>
</svg>
