<svg width="42" height="43" viewBox="0 0 42 43" xmlns="http://www.w3.org/2000/svg">
    <g fill-rule="nonzero" fill="none">
        <path d="M16.329 27.014v6.944H9.384v-6.944h6.945zm8.102 0v6.944h-6.945v-6.944h6.945zm8.101 0v6.944h-6.944v-6.944h6.944zM16.33 18.912v6.944H9.384v-6.944h6.945zm8.102 0v6.944h-6.945v-6.944h6.945zm8.101 0v6.944h-6.944v-6.944h6.944zM16.33 10.81v6.945H9.384V10.81h6.945zm8.102 0v6.945h-6.945V10.81h6.945zm-8.102-8.102v6.945H9.384V2.708h6.945z" fill="#575B62"/>
        <path d="M9.384 35.694h23.148l7.053 2.778h.015v1.852H2.33v-1.852l7.053-2.778z" fill="#A5A9B0"/>
    </g>
</svg>
