<svg width="43" height="42" viewBox="0 0 43 42" xmlns="http://www.w3.org/2000/svg">
    <g transform="translate(3.85 3.565)" fill-rule="nonzero" fill="none">
        <g transform="translate(4.678 4.63)">
            <path d="M12.847 0c7.096 0 12.847 5.752 12.847 12.847 0 7.096-5.751 12.847-12.847 12.847C5.752 25.694 0 19.943 0 12.847 0 5.752 5.752 0 12.847 0zm0 4.282a8.565 8.565 0 1 0 0 17.13 8.565 8.565 0 0 0 0-17.13z" fill="#A5A9B0"/>
            <circle fill="#575B62" cx="12.847" cy="12.847" r="5.787"/>
        </g>
        <path d="m19.85 0 1.438 8.472 7.009-4.973 3.273 3.274-4.973 7.008 8.472 1.439v4.63l-8.472 1.438 4.973 7.009-3.273 3.273-7.009-4.973-1.438 8.472h-4.63l-1.439-8.472-7.008 4.973-3.274-3.273 4.973-7.009L0 19.85v-4.63l8.472-1.439-4.973-7.008 3.274-3.274 7.008 4.973L15.22 0h4.63zM8.912 13.962v7.144l5.05 5.051h7.144l5.051-5.051v-7.144l-5.051-5.05h-7.144l-5.05 5.05z" fill="#A5A9B0"/>
        <circle fill="#575B62" cx="17.525" cy="17.477" r="8.681"/>
        <circle fill="#A5A9B0" cx="17.525" cy="17.477" r="4.051"/>
    </g>
</svg>
