<svg width="42" height="43" viewBox="0 0 42 43" xmlns="http://www.w3.org/2000/svg">
    <g fill-rule="nonzero" fill="none">
        <path d="M28.923 4.097a2.315 2.315 0 0 1 1.637 2.835L27.58 18.056l5.988 1.605a2.315 2.315 0 0 1 1.637 2.835l-.69 2.571-20.458-5.482.689-2.571a2.315 2.315 0 0 1 2.835-1.637l5.527 1.48 2.981-11.123a2.315 2.315 0 0 1 2.835-1.637z" fill="#575B62"/>
        <path d="m14.056 19.585 20.459 5.482c-.184.83-.702 2.403-1.555 4.72-.852 2.315-2.445 4.367-4.777 6.155l-20.31-5.837c1.842-1.54 3.224-3.193 4.147-4.957a22.577 22.577 0 0 0 2.036-5.563z" fill="#A5A9B0"/>
        <g>
            <path d="M3.33 22.486c1.504-1.426 2.333-1.986 2.487-1.68.232.459-1.113 2.015-.78 2.015.334 0 2.534-.671 2.914-.335.38.335.864 1.374.864 1.89 0 .514-.864 1.689-.864 2.419s-2.914 1.569-2.914 1.569H2.3c.181-.537.181-.933 0-1.188-.273-.381-1.123-1.331-1.123-1.331s1.114-.436 1.466-.436c.235 0 .12-.038-.343-.112l.343-.922v-1.023c0-.354.23-.643.688-.866z" fill="#C3C5CA"/>
            <path d="m4.88 23.408 2.083.905.575 2.15-.307.743-1.318.282H4.458l-.716.644-.44-1.67 3.449-.692c-.404-.663-.683-.994-.838-.994-.233 0-1.455 0-1.455.29 0 .289-.716-.29-.716-.29l.716-.463-.147-.905-.32-.764.889.764z" fill="#A5A9B0"/>
        </g>
    </g>
</svg>
