<svg width="43" height="42" viewBox="0 0 43 42" xmlns="http://www.w3.org/2000/svg" xmlns:xlink="http://www.w3.org/1999/xlink">
    <defs>
        <path d="M4.79 0c2.644 0 4.789 2.14 4.789 4.78s-2.145 4.78-4.79 4.78A4.785 4.785 0 0 1 0 4.78C0 2.14 2.144 0 4.79 0zm0 2.39a2.392 2.392 0 0 0-2.395 2.39c0 1.32 1.072 2.39 2.394 2.39a2.392 2.392 0 0 0 2.395-2.39c0-1.32-1.072-2.39-2.395-2.39z" id="i0oity849a"/>
        <path d="M21.92 0c-.921 3.648-3.268 6.665-6.334 8.228L.835 4.282C.411 3.128.126 1.72 0 0h21.92z" id="1l034fmizb"/>
        <path d="M0 3.24C2.05 1.08 3.682 0 4.896 0c1.82 0 3.11 1.167 3.788 1.167.678 0 1.757-.881 3.977-.175 1.48.471 2.892 1.22 4.235 2.249H0z" id="pvzu9c6aod"/>
        <path d="M2.258.786a1.048 1.048 0 0 1 2.043.464h-.236L1.969 8.616l12.08-5.184c.517-.213 1.126-.277 1.364.221l.023.052a1.045 1.045 0 0 1-.516 1.343l-.052.023-13.42 5.594A1.047 1.047 0 0 1 .023 9.49l.012-.051L2.258.786z" id="z6v0vpuhre"/>
        <path d="M4.72 0c.276 0 .536.127.705.342L5.46.39l4.326 6.305 20.391 5.755c.46.13.735.595.633 1.056l-.013.05a.898.898 0 0 1-1.057.632l-.051-.013L8.985 8.332a.898.898 0 0 1-.46-.305l-.037-.05-4.242-6.184H.898A.897.897 0 0 1 .002.949L0 .896C0 .42.374.03.845.002L.898 0h3.821z" id="w31rwbxt7f"/>
        <rect id="4fvx86ofwc" x="0" y="0" width="24.844" height="2.091" rx="1.046"/>
    </defs>
    <g fill="none" fill-rule="evenodd">
        <use fill="#575B62" fill-rule="nonzero" xlink:href="#i0oity849a" transform="translate(29.39 29.817)"/>
        <use fill="#575B62" fill-rule="nonzero" xlink:href="#1l034fmizb" transform="translate(13.632 22.945)"/>
        <use fill="#7C818A" fill-rule="nonzero" xlink:href="#4fvx86ofwc" transform="translate(12.03 21.523)"/>
        <use fill="#A5A9B0" fill-rule="nonzero" xlink:href="#pvzu9c6aod" transform="translate(15.768 18.306)"/>
        <use fill="#575B62" fill-rule="nonzero" xlink:href="#z6v0vpuhre" transform="translate(12.03 28.621)"/>
        <use fill="#575B62" fill-rule="nonzero" xlink:href="#w31rwbxt7f" transform="translate(4.546 21.523)"/>
        <path d="M22.718 1.87c.395 0 .744.199.953.501a.868.868 0 0 1 1.26 1.122l.044-.002c.415 0 .752.337.752.752l-.001-.01a.868.868 0 0 1 1.488.764 1.157 1.157 0 0 1 2.217.48l.084-.012.147-.007a1.62 1.62 0 0 1 1.456 2.334 1.042 1.042 0 0 1-.513 1.537 1.042 1.042 0 0 1-.722 1.801 1.387 1.387 0 0 1-2.059.56l-.177.013-.184.005c-.74 0-1.423-.248-1.969-.666l-.119-.096a4.035 4.035 0 0 1-2.657.994c-.7 0-1.36-.178-1.934-.49a1.157 1.157 0 0 1-1.734-.326h-.002l-.15.006a1.736 1.736 0 0 1-1.367-2.807l-.027-.013a1.157 1.157 0 0 1 .14-2.069 1.736 1.736 0 0 1 1.648-2.403 1.389 1.389 0 0 1 2.28-1.373l.089.09a1.158 1.158 0 0 1 1.057-.685z" fill="#7C818A" fill-rule="nonzero"/>
        <path d="M22.37 19.334c.45-2.504.64-3.918.567-4.244-.046-.203-.087-.928-.371-2.105-.116-.476-.374-1.36-.774-2.65l1.145.216c.371.844.626 1.478.764 1.903.139.425.293 1.049.463 1.871a71.766 71.766 0 0 1 1.563-2.046c.353-.437.816-.975 1.389-1.612h1.157c-1.201 1.484-2.011 2.526-2.43 3.125-.936 1.337-1.01 1.78-1.077 3.26-.045.986.025 1.857.209 2.613a5.48 5.48 0 0 1-1.122 0c-.299-.038-.793-.148-1.483-.33z" fill="#7C818A" fill-rule="nonzero"/>
    </g>
</svg>
