<svg width="43" height="43" viewBox="0 0 43 43" xmlns="http://www.w3.org/2000/svg">
    <path d="M35.626 9.341a.664.664 0 0 1-.087 1.193l-6.688 2.658-6.849 11.863a3.19 3.19 0 0 1 .334 3.397l-.086.159-.4.689 4.238 2.447c-4.013 6.343-10.003 9.715-13.705 7.577-3.701-2.137-3.776-9.01-.29-15.657l4.237 2.445.399-.689a3.189 3.189 0 0 1 3.203-1.564l6.849-11.862-1.042-7.121a.664.664 0 0 1 .99-.671l8.897 5.136zm-15.34 16.296a1.594 1.594 0 0 0-2.177.583l-.399.69 2.761 1.593.398-.69c.416-.72.206-1.629-.46-2.098z" fill="#575B62" fill-rule="nonzero"/>
</svg>
